<svg xmlns="http://www.w3.org/2000/svg" width="255" height="52.482" viewBox="0 0 255 52.482">
  <g id="Group_6" data-name="Group 6" transform="translate(-36 -117)">
    <g id="teacher" transform="translate(36 115.343)">
      <g id="Group_4" data-name="Group 4" transform="translate(0.68 2.334)">
        <path id="Path_1" data-name="Path 1" d="M158.842,66.88H189a2.949,2.949,0,0,0,2.949-2.949V37.8A2.949,2.949,0,0,0,189,34.849H158.842a2.949,2.949,0,0,0-2.949,2.949V63.931A2.949,2.949,0,0,0,158.842,66.88Z" transform="translate(-140.489 -32.101)" fill="#6ec17d"/>
        <g id="Group_3" data-name="Group 3">
          <path id="Path_2" data-name="Path 2" d="M29.8,371.348s-2.43.724-3.264-.11,0-2.973,0-2.973l4.129-1.69Z" transform="translate(-24.142 -329.603)" fill="#f1d0a5"/>
          <path id="Path_3" data-name="Path 3" d="M28.61,382.081a2.652,2.652,0,0,1-2.077-.352c-.834-.834,0-2.973,0-2.973l1.179-.483.742.483S27.194,380.882,28.61,382.081Z" transform="translate(-24.143 -340.094)" fill="#f1b986"/>
          <path id="Path_4" data-name="Path 4" d="M47,259.207a77.069,77.069,0,0,0,8.61,2.319l.171,2.222c-2.632,1.584-9.675.838-9.675.838a14.56,14.56,0,0,1,1.857,5.7l.135,1.689s.513,5.847-1.128,10.052H41.844s1.286-5.961-1.263-8.51c-2.548,2.548-1.263,8.51-1.263,8.51H34.191c-1.641-4.2-1.128-10.052-1.128-10.052H29.754c0-9.251,3.756-12.307,4.407-12.767" transform="translate(-27.364 -233.312)" fill="#dfeaef"/>
          <path id="Path_5" data-name="Path 5" d="M101.583,262.47l1.373,3.39L98.83,264.8,94.7,265.86l1.373-3.39" transform="translate(-85.613 -236.238)" fill="#b4d0d5"/>
          <path id="Path_6" data-name="Path 6" d="M75.075,378.318l-.369.747-4.758-.747s1.285-5.96-1.263-8.51c-2.548,2.549-1.262,8.51-1.262,8.51H62.294c-1.641-4.2-1.128-10.052-1.128-10.052a11.485,11.485,0,0,1,.135-1.689H76.068l.135,1.689S76.715,374.113,75.075,378.318Z" transform="translate(-55.467 -329.604)" fill="#665e66"/>
          <path id="Path_7" data-name="Path 7" d="M35.912,259.207a21.428,21.428,0,0,0-4.24,12.767H29.75c0-9.251,3.756-12.306,4.407-12.767Z" transform="translate(-27.36 -233.312)" fill="#b4d0d5"/>
          <path id="Path_8" data-name="Path 8" d="M63.8,378.318l-.937,1.207-.581-1.207c-1.641-4.2-1.128-10.052-1.128-10.052a11.485,11.485,0,0,1,.135-1.689h2.433A25.4,25.4,0,0,0,63.8,378.318Z" transform="translate(-55.456 -329.604)" fill="#454045"/>
          <path id="Path_9" data-name="Path 9" d="M137.291,406.4h-1.338s1.286-5.96-1.262-8.51C137.291,397.894,138.628,402.372,137.291,406.4Z" transform="translate(-121.473 -357.69)" fill="#454045"/>
          <path id="Path_10" data-name="Path 10" d="M57.846,482.792h6.666v-2.414H60.26A2.415,2.415,0,0,0,57.846,482.792Z" transform="translate(-52.557 -431.664)" fill="#aa593d"/>
          <path id="Path_11" data-name="Path 11" d="M61.8,480.375a2.415,2.415,0,0,0-2.415,2.415H57.846a2.414,2.414,0,0,1,2.414-2.415Z" transform="translate(-52.557 -431.662)" fill="#934d36"/>
          <path id="Path_12" data-name="Path 12" d="M153.6,482.792h-6.666v-2.414h4.252A2.415,2.415,0,0,1,153.6,482.792Z" transform="translate(-132.454 -431.664)" fill="#aa593d"/>
          <path id="Path_13" data-name="Path 13" d="M284.214,282.841v.828a1.159,1.159,0,0,1-1.16,1.16h-1.519a1.159,1.159,0,0,1-1.16-1.16V281.68h2.678A1.16,1.16,0,0,1,284.214,282.841Z" transform="translate(-252.128 -253.466)" fill="#f1d0a5"/>
          <path id="Path_14" data-name="Path 14" d="M282.381,284.829h-.845a1.159,1.159,0,0,1-1.16-1.16V281.68H282.3A5.087,5.087,0,0,0,282.381,284.829Z" transform="translate(-252.128 -253.466)" fill="#f1b986"/>
          <path id="Path_15" data-name="Path 15" d="M32.068,148.134h.015a2.328,2.328,0,0,0,0-4.655H10.672a2.328,2.328,0,0,0,0,4.655h.015" transform="translate(-8.163 -129.524)" fill="#f1b986"/>
          <path id="Path_16" data-name="Path 16" d="M51.691,80.3a104.989,104.989,0,0,0-20.31,0,71.992,71.992,0,0,0-.464,12.628,5.958,5.958,0,0,0,5.674,5.648q4.945.234,9.891,0a5.958,5.958,0,0,0,5.674-5.648A72,72,0,0,0,51.691,80.3Z" transform="translate(-28.322 -72.418)" fill="#f1d0a5"/>
          <path id="Path_17" data-name="Path 17" d="M31.386,80.294q5.077-.492,10.155-.492a27.036,27.036,0,0,0-5.142.5q-.4,6.375-.235,12.749c.072,2.8,1.094,5.077,2.435,5.6q-1-.027-2-.075a5.958,5.958,0,0,1-5.674-5.648A72.09,72.09,0,0,1,31.386,80.294Z" transform="translate(-28.326 -72.417)" fill="#f1b986"/>
          <path id="Path_18" data-name="Path 18" d="M25.44,19.6c-3.891,1.5-9.419.84-12.2-1.945,0,0-.662,4.523-4.089,4.523l-1.495.5C3.661,7.009,12.175,11.2,12.175,11.2a4.05,4.05,0,0,1,3.2-2.358c.108-.013.215-.023.324-.03h.026a7.1,7.1,0,0,1,2.509.378c.27.087.529.183.771.282a11.809,11.809,0,0,1,1.832.941l.029.02c.876-1.159,1.712-2.209,2.631-2.209a.958.958,0,0,1,.812.375c.663.869.118,2.959.074,3.123l0,.007,0-.007,0-.012c.118-.3,1.434-3.486,3.795-3.486a1.842,1.842,0,0,1,.4.041c1.76.389.382,3.467.231,3.793l0,.009-.008.017c.075-.1,3.022-3.837,4.332-2.121v0c1.321,1.741-3.806,8.135-7.7,9.638Z" transform="translate(-6.587 -8.219)" fill="#f4dd45"/>
          <g id="Group_1" data-name="Group 1" transform="translate(0 0)">
            <path id="Path_19" data-name="Path 19" d="M226.216,21.16h0c-.662-.662-2.956,2.461-4.333,2.123l.01-.019-.008.017C221.959,23.185,224.906,19.443,226.216,21.16Z" transform="translate(-199.669 -19.421)" fill="#ecc32e"/>
            <path id="Path_20" data-name="Path 20" d="M183.228,8.261c-.995-.226-1.917,1.668-2.438,3.012a1.113,1.113,0,0,1-1.625.544l-.142-.088v0l0-.007h0l0-.012c.118-.3,1.434-3.486,3.795-3.486A1.843,1.843,0,0,1,183.228,8.261Z" transform="translate(-161.232 -8.22)" fill="#ecc32e"/>
            <path id="Path_21" data-name="Path 21" d="M15.37,14.213c-2.847.5-3.923,7.029-2.137,8.814,0,0-.662,4.523-4.089,4.523l-1.495.5c-3.992-15.668,4.522-11.482,4.522-11.482a4.05,4.05,0,0,1,3.2-2.358Z" transform="translate(-6.585 -13.595)" fill="#ecc32e"/>
            <path id="Path_22" data-name="Path 22" d="M122.847,8.6c-1-1-1.667,4.131-3.92,4.952s-2.463-.229-2.463-.229h0c1.109-.41,2.045-1.707,2.939-2.89h0l.082-.108c.034-.046.069-.092.1-.137.81-1.058,1.592-1.963,2.445-1.963A.958.958,0,0,1,122.847,8.6Z" transform="translate(-105.128 -8.221)" fill="#ecc32e"/>
          </g>
          <g id="Group_2" data-name="Group 2" transform="translate(6.406 13.894)">
            <circle id="Ellipse_1" data-name="Ellipse 1" cx="2.449" cy="2.449" r="2.449" transform="translate(0)" fill="#dfeaef"/>
            <circle id="Ellipse_2" data-name="Ellipse 2" cx="2.449" cy="2.449" r="2.449" transform="translate(8.718)" fill="#dfeaef"/>
          </g>
        </g>
      </g>
      <g id="Group_5" data-name="Group 5" transform="translate(0 1.657)">
        <path id="Path_23" data-name="Path 23" d="M112.089,198.873a.771.771,0,0,0-1.027.366,1.63,1.63,0,0,1-2.946,0,.771.771,0,0,0-1.393.661,3.172,3.172,0,0,0,5.732,0A.771.771,0,0,0,112.089,198.873Z" transform="translate(-95.645 -178.459)"/>
        <path id="Path_24" data-name="Path 24" d="M376.21,57.377h-3.732a.771.771,0,0,0-.736.541l-1.673,5.348-.471-1.749a.771.771,0,0,0-.745-.571h-1.885a.771.771,0,0,0,0,1.542h1.294l1.006,3.738a.771.771,0,0,0,.729.57h.016a.771.771,0,0,0,.736-.541l2.3-7.337h3.165a.771.771,0,1,0,0-1.542Z" transform="translate(-328.417 -51.628)"/>
        <path id="Path_25" data-name="Path 25" d="M435.273,88.774a.761.761,0,0,0,.014-.076l.029-.227a.774.774,0,0,0,.006-.1,2.275,2.275,0,0,0-4.508-.44.771.771,0,1,0,1.513.3.733.733,0,0,1,1.452.1l-.016.127a3.222,3.222,0,0,1-.5.975c-.93,1.329-1.485,2.055-1.783,2.445-.367.48-.569.745-.44,1.166a.8.8,0,0,0,.518.525,4.712,4.712,0,0,0,1.336.064c.451,0,1.067,0,1.913-.015a.771.771,0,0,0-.019-1.542c-.516.007-1.06.011-1.536.013.315-.425.732-1,1.274-1.772a4.568,4.568,0,0,0,.745-1.544Z" transform="translate(-386.353 -77.385)"/>
        <path id="Path_26" data-name="Path 26" d="M49.116,4.395H28.16a1.767,1.767,0,0,0-.32-.7,1.813,1.813,0,0,0-1.472-.752,3.606,3.606,0,0,0-2.023.825,2.371,2.371,0,0,0-.321-1.255,1.9,1.9,0,0,0-1.731-.854,3.988,3.988,0,0,0-2.9,1.406,2.171,2.171,0,0,0-.349-.727,1.719,1.719,0,0,0-1.424-.679c-1.105,0-1.966.879-2.814,1.957a12.936,12.936,0,0,0-1.369-.657c-.272-.111-.549-.213-.824-.3a7.786,7.786,0,0,0-2.777-.413H9.806c-.123.008-.247.019-.373.035a4.722,4.722,0,0,0-3.42,2.158,4.539,4.539,0,0,0-4.277.48C-.294,6.566-.541,10.385.983,16.584a3.088,3.088,0,0,0,1.558,5.067c.014.416.031.832.052,1.246a6.683,6.683,0,0,0,3.537,5.578,11.87,11.87,0,0,0-2.2,3.551.771.771,0,1,0,1.423.593,9.446,9.446,0,0,1,2.368-3.541,6.809,6.809,0,0,0,1.261.178q.546.026,1.093.045l-.952,2.351a.771.771,0,0,0,.906,1.036l3.149-.806v6.612H7.517A13.921,13.921,0,0,1,8,36.789a.771.771,0,0,0-1.444-.541,15.769,15.769,0,0,0-.724,2.9c-.053.352-.089.694-.113,1.026H3.94a24.9,24.9,0,0,1,.543-4.764.771.771,0,0,0-1.505-.334A27.15,27.15,0,0,0,2.391,40.8c-.231.644-.816,2.61.224,3.651a2.693,2.693,0,0,0,1.932.626,6.8,6.8,0,0,0,1.112-.1,22.018,22.018,0,0,0,1.018,5.755,3.176,3.176,0,0,0-1.4,2.632.771.771,0,0,0,.771.771h6.642a.771.771,0,0,0,.771-.771V50.963a.773.773,0,0,0-.017-.162c-.294-1.362-.686-4.962.5-7.046,1.186,2.08.8,5.68.505,7.044a.771.771,0,0,0-.018.164v2.405a.771.771,0,0,0,.771.771h6.642a.771.771,0,0,0,.771-.771,3.176,3.176,0,0,0-1.4-2.632,27.766,27.766,0,0,0,.989-9.85L22.071,39.2v-.016c-.047-.464-.117-.911-.2-1.338H41.631a.771.771,0,1,0,0-1.542H21.474a16.022,16.022,0,0,0-.7-1.845c.66.039,1.5.071,2.417.07a16.39,16.39,0,0,0,5.46-.723,1.93,1.93,0,0,0,.766.518l-.237.828a.771.771,0,1,0,1.483.423l.323-1.132h.6a1.929,1.929,0,0,0,1.927-1.927v-.826a1.928,1.928,0,0,0-1.233-1.8l4.338-15.2a.771.771,0,1,0-1.483-.423L30.718,29.767H29c-.492-.1-3.431-.72-6.6-1.684A6.688,6.688,0,0,0,25.294,22.9q.032-.622.052-1.246a3.09,3.09,0,0,0-.047-6.012q-.121-2.454-.407-4.895a14.081,14.081,0,0,0,3.143-4.808h21.08A2.169,2.169,0,0,1,51.283,8.1V34.141a2.169,2.169,0,0,1-2.167,2.167h-4.4a.771.771,0,0,0,0,1.542h4.4a3.713,3.713,0,0,0,3.709-3.709V8.1a3.713,3.713,0,0,0-3.709-3.709ZM23.491,12.112q.191,1.91.279,3.83l-2.517,1.542a3.21,3.21,0,0,0-6.083.456H12.718a3.21,3.21,0,0,0-6.083-.456L5.25,16.636a5.94,5.94,0,0,0,2.6-3.422,11.687,11.687,0,0,0,5.1,1.946,13.828,13.828,0,0,0,6.883-.677A12.779,12.779,0,0,0,23.491,12.112Zm-3.536,6.6a1.669,1.669,0,1,1-1.669-1.669A1.671,1.671,0,0,1,19.956,18.711Zm-8.686,0A1.669,1.669,0,1,1,9.6,17.042,1.671,1.671,0,0,1,11.27,18.711Zm-9.54-.06A1.549,1.549,0,0,1,2.524,17.3q-.035,1.343-.02,2.69a1.547,1.547,0,0,1-.774-1.339Zm9.394,12.164.594-1.468q.728.015,1.458.02v.923Zm5.052-1.468.595,1.468-2.052-.525v-.923Q15.447,29.362,16.175,29.348ZM3.7,43.365c-.216-.216-.169-.955.015-1.646H5.637c-.019.436-.035,1.021-.029,1.7A2.89,2.89,0,0,1,3.7,43.365ZM7.012,52.6a1.636,1.636,0,0,1,1.437-.863h3.469V52.6Zm8.964,0v-.863h3.469a1.636,1.636,0,0,1,1.437.863Zm.141-2.406a18.669,18.669,0,0,0,.182-2.515c0-2.6-.6-4.535-1.807-5.738a.771.771,0,0,0-1.09,0c-1.2,1.2-1.811,3.134-1.807,5.738a18.669,18.669,0,0,0,.182,2.515H8.12c-1.3-3.842-.875-9.84-.845-10.156H20.591l.078.979a26.794,26.794,0,0,1-.9,9.177ZM31.975,32.52a.385.385,0,0,1-.385.385H30.078a.385.385,0,0,1-.385-.385V31.309h1.9a.385.385,0,0,1,.385.385Zm-3.824-1.357v1.189a14.87,14.87,0,0,1-4.95.639c-1.977.006-3.651-.169-3.668-.17A.771.771,0,0,0,18.8,34a13.9,13.9,0,0,1,1.62,4.5h-5.7V31.882l3.148.806a.771.771,0,0,0,.906-1.036L17.82,29.3q.544-.02,1.087-.045a6.8,6.8,0,0,0,1.419-.219,78.068,78.068,0,0,0,7.825,2.126Zm-4.4-8.344a5.151,5.151,0,0,1-4.92,4.9c-3.245.153-6.536.153-9.782,0a5.15,5.15,0,0,1-4.919-4.9c-.087-1.692-.112-3.4-.076-5.105l2.365,1.449a3.21,3.21,0,0,0,6.3.319H15.17a3.21,3.21,0,0,0,6.3-.319l2.364-1.449Q23.884,20.272,23.755,22.819Zm2.4-4.168a1.547,1.547,0,0,1-.774,1.339q.014-1.344-.021-2.691A1.549,1.549,0,0,1,26.158,18.651ZM26.58,5.426c-.65,2.3-4.377,6.491-7.3,7.619-3.807,1.471-8.892.679-11.336-1.764a.771.771,0,0,0-1.308.434c-.006.038-.594,3.847-3.311,3.847h-.05a3.079,3.079,0,0,0-.921.14C1.594,12.417.873,7.613,2.7,6.118c1.24-1.012,3.283-.042,3.3-.033A.771.771,0,0,0,7.03,5.747a3.277,3.277,0,0,1,2.6-1.938c.087-.011.175-.019.263-.025l.04,0a6.268,6.268,0,0,1,2.215.341c.237.076.477.164.713.261.387.158.729.325,1.006.471A5.7,5.7,0,0,1,11.8,6.785a.771.771,0,0,0,.534,1.446c1.263-.466,2.22-1.735,3.145-2.963.7-.922,1.561-2.07,2.139-2.07.144,0,.173.039.2.07a4.04,4.04,0,0,1-.059,2.448.771.771,0,0,0,1.464.479c.011-.03,1.186-3,3.068-3,.227,0,.37.045.425.132.25.4-.065,1.694-.5,2.609a.771.771,0,0,0,1.3.808c.712-.915,2.106-2.266,2.839-2.266h0a.285.285,0,0,1,.254.145c.064.085.094.345-.034.8Z" transform="translate(0 -1.657)"/>
      </g>
    </g>
    <text id="EscolaLMS" transform="translate(98 153)" font-size="40" font-family="MetaPro-Black, MetaPro" font-weight="800"><tspan x="0" y="0">EscolaLMS</tspan></text>
  </g>
</svg>
