<svg width="473" height="75.1" viewBox="0 0 473 75.1" xmlns="http://www.w3.org/2000/svg"><g id="svgGroup" stroke-linecap="round" fill-rule="evenodd" font-size="9pt" stroke="#000" stroke-width="0.25mm" fill="none" style="fill:#202f56"><path d="M 379 44.2 L 400.4 4.15 A 7.465 7.465 0 0 1 400.704 3.63 Q 400.959 3.231 401.225 2.95 A 2.712 2.712 0 0 1 401.788 2.49 A 2.369 2.369 0 0 1 402.175 2.3 Q 402.7 2.1 403.35 2.05 A 15.103 15.103 0 0 1 403.873 2.02 Q 404.338 2 404.9 2 L 415.05 2 L 415.05 74.3 L 403.2 74.3 L 403.2 27.6 A 51.873 51.873 0 0 1 403.219 26.237 A 67.632 67.632 0 0 1 403.275 24.75 Q 403.35 23.2 403.5 21.6 L 381.65 62.6 A 6.239 6.239 0 0 1 380.664 63.977 A 5.34 5.34 0 0 1 379.7 64.775 A 4.842 4.842 0 0 1 377.581 65.513 A 6.11 6.11 0 0 1 376.9 65.55 L 375.05 65.55 A 5.579 5.579 0 0 1 373.506 65.344 A 4.679 4.679 0 0 1 372.25 64.775 Q 371.05 64 370.3 62.6 L 348.15 21.45 Q 348.35 23.1 348.425 24.675 A 69.32 69.32 0 0 1 348.481 26.194 A 54.926 54.926 0 0 1 348.5 27.6 L 348.5 74.3 L 336.65 74.3 L 336.65 2 L 346.8 2 A 27.582 27.582 0 0 1 347.44 2.007 Q 347.755 2.014 348.032 2.029 A 14.013 14.013 0 0 1 348.35 2.05 A 4.637 4.637 0 0 1 349.042 2.154 A 3.708 3.708 0 0 1 349.525 2.3 Q 350.05 2.5 350.5 2.95 Q 350.885 3.335 351.233 3.939 A 7.329 7.329 0 0 1 351.35 4.15 L 372.95 44.3 Q 373.8 45.9 374.525 47.625 Q 375.25 49.35 375.95 51.1 Q 376.65 49.3 377.4 47.55 Q 378.15 45.8 379 44.2 Z M 0 2 L 45.6 2 L 45.6 12.7 L 13.55 12.7 L 13.55 32.75 L 38.8 32.75 L 38.8 43.1 L 13.55 43.1 L 13.55 63.55 L 45.6 63.55 L 45.6 74.3 L 0 74.3 L 0 2 Z M 471.7 8.8 L 468.4 15.15 A 5.499 5.499 0 0 1 468.011 15.816 Q 467.606 16.401 467.125 16.7 A 2.958 2.958 0 0 1 466.027 17.102 A 3.909 3.909 0 0 1 465.4 17.15 A 3.126 3.126 0 0 1 464.52 17.015 Q 464.139 16.903 463.727 16.698 A 7.062 7.062 0 0 1 463.15 16.375 A 60.01 60.01 0 0 0 461.97 15.663 Q 461.156 15.184 460.2 14.65 Q 458.5 13.7 456.225 12.925 Q 453.95 12.15 450.85 12.15 A 19.595 19.595 0 0 0 448.539 12.279 Q 447.36 12.419 446.345 12.712 A 11.322 11.322 0 0 0 445.975 12.825 A 11.667 11.667 0 0 0 444.008 13.661 A 9.167 9.167 0 0 0 442.475 14.7 Q 441.05 15.9 440.35 17.575 A 9.146 9.146 0 0 0 439.679 20.451 A 10.896 10.896 0 0 0 439.65 21.25 A 7.515 7.515 0 0 0 439.913 23.284 A 5.874 5.874 0 0 0 441.075 25.5 A 10.706 10.706 0 0 0 443.093 27.342 A 14.08 14.08 0 0 0 444.85 28.4 Q 447.2 29.6 450.2 30.55 Q 453.2 31.5 456.325 32.575 Q 459.45 33.65 462.45 35.075 Q 465.45 36.5 467.8 38.675 A 16.055 16.055 0 0 1 471.204 43.228 A 18.7 18.7 0 0 1 471.575 44 A 15.091 15.091 0 0 1 472.621 47.368 Q 473 49.33 473 51.65 A 25.367 25.367 0 0 1 471.894 59.2 A 23.599 23.599 0 0 1 471.325 60.825 Q 469.65 65.1 466.425 68.275 A 22.303 22.303 0 0 1 460.516 72.412 A 26.642 26.642 0 0 1 458.55 73.275 A 25.823 25.823 0 0 1 452.722 74.775 A 34.355 34.355 0 0 1 447.9 75.1 Q 444.45 75.1 441.1 74.425 Q 437.75 73.75 434.675 72.5 Q 431.6 71.25 428.925 69.5 A 28.533 28.533 0 0 1 424.549 66 A 26.297 26.297 0 0 1 424.15 65.6 L 428.05 59.15 Q 428.6 58.45 429.375 57.975 Q 430.15 57.5 431.1 57.5 A 3.579 3.579 0 0 1 432.274 57.71 Q 433.007 57.964 433.8 58.525 A 64.484 64.484 0 0 0 435.169 59.465 Q 436.114 60.097 437.225 60.8 A 22.546 22.546 0 0 0 439.375 61.994 A 30.628 30.628 0 0 0 441.875 63.075 Q 444.261 63.989 447.503 64.088 A 26.194 26.194 0 0 0 448.3 64.1 A 19.487 19.487 0 0 0 451.784 63.808 Q 455.081 63.209 457.2 61.375 A 8.829 8.829 0 0 0 460.058 56.437 A 13.472 13.472 0 0 0 460.35 53.55 A 9.319 9.319 0 0 0 460.141 51.522 Q 459.804 50.011 458.925 48.9 Q 457.5 47.1 455.15 45.875 A 25.329 25.329 0 0 0 452.301 44.616 A 32.386 32.386 0 0 0 449.8 43.8 Q 446.8 42.95 443.7 41.95 Q 440.6 40.95 437.6 39.55 Q 434.6 38.15 432.25 35.9 A 15.774 15.774 0 0 1 429.35 32.084 A 19.317 19.317 0 0 1 428.475 30.275 A 16.622 16.622 0 0 1 427.501 27.02 Q 427.191 25.449 427.094 23.642 A 31.616 31.616 0 0 1 427.05 21.95 Q 427.05 18 428.625 14.25 Q 430.2 10.5 433.225 7.6 A 21.523 21.523 0 0 1 438.252 4.042 A 26.413 26.413 0 0 1 440.65 2.95 Q 445.05 1.2 450.7 1.2 A 35.895 35.895 0 0 1 458.309 1.981 A 30.824 30.824 0 0 1 462.5 3.2 A 28.134 28.134 0 0 1 468.762 6.419 A 24.636 24.636 0 0 1 471.7 8.8 Z M 89.8 28.55 L 87 33 A 4.937 4.937 0 0 1 86.658 33.484 Q 86.471 33.716 86.276 33.886 A 2.189 2.189 0 0 1 85.95 34.125 A 2.184 2.184 0 0 1 85.347 34.364 Q 85.078 34.428 84.764 34.445 A 4.154 4.154 0 0 1 84.55 34.45 Q 83.704 34.45 82.747 34.008 A 6.423 6.423 0 0 1 82.625 33.95 Q 81.744 33.52 80.623 32.998 A 182.256 182.256 0 0 0 80.25 32.825 Q 78.9 32.2 77.175 31.7 Q 75.682 31.267 73.722 31.209 A 20.93 20.93 0 0 0 73.1 31.2 A 13.896 13.896 0 0 0 70.823 31.375 Q 68.745 31.721 67.35 32.75 A 5.416 5.416 0 0 0 65.993 34.162 A 4.756 4.756 0 0 0 65.25 36.8 A 4.179 4.179 0 0 0 65.51 38.297 A 3.784 3.784 0 0 0 66.325 39.575 A 8.108 8.108 0 0 0 67.575 40.631 Q 68.198 41.063 68.956 41.443 A 13.737 13.737 0 0 0 69.175 41.55 A 24.77 24.77 0 0 0 71.29 42.439 A 32.312 32.312 0 0 0 73.2 43.075 A 131.491 131.491 0 0 1 77.653 44.5 A 142.857 142.857 0 0 1 77.8 44.55 Q 80.15 45.35 82.4 46.375 Q 84.65 47.4 86.425 48.975 Q 88.2 50.55 89.275 52.75 Q 90.286 54.819 90.346 57.684 A 17.422 17.422 0 0 1 90.35 58.05 A 17.734 17.734 0 0 1 89.712 62.866 A 15.904 15.904 0 0 1 89 64.875 Q 87.65 68 85.05 70.275 A 17.022 17.022 0 0 1 81.216 72.779 A 21.825 21.825 0 0 1 78.625 73.825 A 24.001 24.001 0 0 1 74.243 74.82 A 32.829 32.829 0 0 1 69.85 75.1 Q 67.2 75.1 64.675 74.625 Q 62.15 74.15 59.825 73.3 A 27.499 27.499 0 0 1 56.342 71.755 A 24.498 24.498 0 0 1 55.525 71.3 A 22.402 22.402 0 0 1 53.242 69.784 A 18.608 18.608 0 0 1 52.05 68.8 L 54.9 64.1 Q 55.45 63.25 56.2 62.8 Q 56.868 62.399 57.853 62.355 A 5.553 5.553 0 0 1 58.1 62.35 A 3.979 3.979 0 0 1 60.211 62.96 A 4.74 4.74 0 0 1 60.275 63 Q 61.232 63.607 62.472 64.301 A 66.26 66.26 0 0 0 62.65 64.4 A 17.836 17.836 0 0 0 64.094 65.114 Q 64.848 65.448 65.71 65.759 A 29.297 29.297 0 0 0 65.825 65.8 A 9.967 9.967 0 0 0 67.434 66.215 Q 68.261 66.361 69.224 66.416 A 21.383 21.383 0 0 0 70.45 66.45 A 15.486 15.486 0 0 0 72.134 66.363 Q 73.29 66.237 74.225 65.925 Q 75.8 65.4 76.825 64.55 A 5.447 5.447 0 0 0 77.891 63.38 A 4.848 4.848 0 0 0 78.325 62.575 Q 78.8 61.45 78.8 60.25 A 4.939 4.939 0 0 0 78.623 58.895 A 3.838 3.838 0 0 0 77.725 57.3 Q 76.682 56.184 74.98 55.351 A 13.369 13.369 0 0 0 74.875 55.3 A 24.116 24.116 0 0 0 72.848 54.446 A 31.943 31.943 0 0 0 70.825 53.775 A 133.643 133.643 0 0 1 66.249 52.325 A 145.707 145.707 0 0 1 66.175 52.3 Q 63.8 51.5 61.525 50.425 Q 59.25 49.35 57.475 47.7 A 12.076 12.076 0 0 1 54.978 44.382 A 14.136 14.136 0 0 1 54.625 43.65 Q 53.652 41.477 53.56 38.484 A 20.63 20.63 0 0 1 53.55 37.85 Q 53.55 34.7 54.8 31.85 Q 56.05 29 58.475 26.875 A 16.401 16.401 0 0 1 61.778 24.651 A 21.598 21.598 0 0 1 64.525 23.475 A 21.717 21.717 0 0 1 68.694 22.48 Q 70.666 22.201 72.883 22.2 A 34.362 34.362 0 0 1 72.9 22.2 A 27.847 27.847 0 0 1 78.711 22.785 A 23.229 23.229 0 0 1 82.55 23.95 A 24.274 24.274 0 0 1 86.763 26.12 A 19.556 19.556 0 0 1 89.8 28.55 Z M 298.4 2 L 298.4 63.2 L 327.35 63.2 L 327.35 74.3 L 284.95 74.3 L 284.95 2 L 298.4 2 Z M 272.1 41.9 L 272.1 74.3 L 266.55 74.3 A 9.508 9.508 0 0 1 265.529 74.249 Q 265.013 74.193 264.583 74.076 A 3.867 3.867 0 0 1 263.8 73.775 Q 263.019 73.365 262.543 72.299 A 5.928 5.928 0 0 1 262.3 71.65 L 261.2 68 A 45.627 45.627 0 0 1 258.792 70.021 A 37.406 37.406 0 0 1 257.375 71.075 Q 255.5 72.4 253.5 73.3 Q 251.5 74.2 249.25 74.65 A 22.648 22.648 0 0 1 246.6 75.011 A 29.756 29.756 0 0 1 244.25 75.1 A 21.138 21.138 0 0 1 240.429 74.767 A 17.749 17.749 0 0 1 238.25 74.225 Q 235.5 73.35 233.525 71.6 A 11.807 11.807 0 0 1 230.627 67.651 A 13.769 13.769 0 0 1 230.45 67.25 A 13.529 13.529 0 0 1 229.561 64.062 A 18.486 18.486 0 0 1 229.35 61.2 Q 229.35 58.3 230.875 55.475 A 11.7 11.7 0 0 1 232.896 52.797 Q 234.168 51.517 235.95 50.375 Q 238.655 48.642 242.724 47.358 A 49.221 49.221 0 0 1 245.4 46.6 A 47.147 47.147 0 0 1 250.226 45.658 Q 252.88 45.272 255.947 45.075 A 99.555 99.555 0 0 1 260.05 44.9 L 260.05 41.9 A 19.42 19.42 0 0 0 259.868 39.146 Q 259.666 37.736 259.237 36.604 A 7.512 7.512 0 0 0 257.875 34.275 A 7 7 0 0 0 254.224 32.106 Q 253.085 31.819 251.731 31.801 A 13.702 13.702 0 0 0 251.55 31.8 A 21.259 21.259 0 0 0 249.446 31.898 Q 248.418 32 247.544 32.21 A 10.222 10.222 0 0 0 246.55 32.5 A 22.788 22.788 0 0 0 244.736 33.219 Q 243.843 33.621 243.087 34.068 A 14.279 14.279 0 0 0 243.075 34.075 A 145.102 145.102 0 0 1 241.656 34.906 A 110.837 110.837 0 0 1 240.35 35.65 Q 239.1 36.35 237.6 36.35 A 4.019 4.019 0 0 1 236.472 36.198 A 3.314 3.314 0 0 1 235.45 35.7 Q 234.55 35.05 234 34.1 L 231.75 30.15 Q 240.6 22.05 253.1 22.05 A 23.529 23.529 0 0 1 257.356 22.419 A 18.306 18.306 0 0 1 261.125 23.525 Q 264.65 25 267.1 27.625 A 17.305 17.305 0 0 1 270.532 33.114 A 20.167 20.167 0 0 1 270.825 33.9 Q 272.1 37.55 272.1 41.9 Z M 139.55 29.35 L 136.3 33.85 Q 135.852 34.42 135.421 34.791 A 4.246 4.246 0 0 1 135.225 34.95 A 1.724 1.724 0 0 1 134.703 35.214 Q 134.466 35.291 134.178 35.324 A 4.164 4.164 0 0 1 133.7 35.35 A 3.253 3.253 0 0 1 132.25 35.001 A 4.121 4.121 0 0 1 131.85 34.775 A 44.509 44.509 0 0 0 131.126 34.323 Q 130.804 34.125 130.447 33.913 A 80.34 80.34 0 0 0 129.7 33.475 Q 128.529 32.796 126.942 32.249 A 22.132 22.132 0 0 0 126.725 32.175 A 10.075 10.075 0 0 0 125.187 31.803 Q 124.423 31.676 123.545 31.629 A 20.278 20.278 0 0 0 122.45 31.6 A 15.249 15.249 0 0 0 119.579 31.858 A 11.527 11.527 0 0 0 116.75 32.775 Q 114.3 33.95 112.675 36.15 A 13.83 13.83 0 0 0 110.983 39.218 A 17.964 17.964 0 0 0 110.25 41.475 A 24.79 24.79 0 0 0 109.626 45.028 A 33.682 33.682 0 0 0 109.45 48.55 A 32.933 32.933 0 0 0 109.642 52.196 Q 109.853 54.089 110.296 55.744 A 20.451 20.451 0 0 0 110.325 55.85 A 18.401 18.401 0 0 0 111.316 58.625 A 13.624 13.624 0 0 0 112.85 61.225 Q 114.5 63.4 116.85 64.525 A 11.482 11.482 0 0 0 120.538 65.561 A 14.255 14.255 0 0 0 122.15 65.65 A 19.638 19.638 0 0 0 124.045 65.564 Q 124.965 65.475 125.74 65.292 A 8.488 8.488 0 0 0 126.925 64.925 A 18.646 18.646 0 0 0 128.412 64.262 Q 129.297 63.817 130 63.325 A 62.746 62.746 0 0 0 131.032 62.588 Q 131.499 62.247 131.908 61.932 A 35.643 35.643 0 0 0 132.175 61.725 Q 133.1 61 134.25 61 A 3.097 3.097 0 0 1 135.193 61.136 A 2.396 2.396 0 0 1 136.5 62.15 L 140.05 66.65 A 23.068 23.068 0 0 1 136.796 69.8 A 20.481 20.481 0 0 1 135.6 70.675 Q 133.2 72.3 130.625 73.275 Q 128.05 74.25 125.3 74.65 Q 122.55 75.05 119.85 75.05 Q 115.1 75.05 110.9 73.275 Q 106.7 71.5 103.575 68.1 A 23.455 23.455 0 0 1 99.893 62.704 A 29.013 29.013 0 0 1 98.625 59.775 A 28.672 28.672 0 0 1 97.125 53.621 A 38.018 38.018 0 0 1 96.8 48.55 Q 96.8 42.9 98.425 38.075 A 24.452 24.452 0 0 1 101.634 31.689 A 22.346 22.346 0 0 1 103.2 29.725 A 21.645 21.645 0 0 1 110.141 24.588 A 25.17 25.17 0 0 1 111 24.2 A 24.105 24.105 0 0 1 117.015 22.53 A 31.944 31.944 0 0 1 121.7 22.2 A 30.27 30.27 0 0 1 126.698 22.593 A 22.175 22.175 0 0 1 131.775 24.05 Q 136.1 25.9 139.55 29.35 Z M 205.6 0 L 217.95 0 L 217.95 74.3 L 205.6 74.3 L 205.6 0 Z M 175.979 22.785 A 30.874 30.874 0 0 0 169.85 22.2 A 32.919 32.919 0 0 0 166.359 22.381 A 26.616 26.616 0 0 0 159.4 24.05 A 25.967 25.967 0 0 0 158.962 24.227 A 22.565 22.565 0 0 0 151.375 29.3 A 21.621 21.621 0 0 0 149.179 31.937 A 24.65 24.65 0 0 0 146.225 37.6 A 27.788 27.788 0 0 0 144.946 42.277 A 34.619 34.619 0 0 0 144.4 48.55 A 36.638 36.638 0 0 0 144.657 52.956 A 28.726 28.726 0 0 0 146.225 59.55 A 27.536 27.536 0 0 0 146.864 61.119 A 23.303 23.303 0 0 0 151.375 67.9 A 21.784 21.784 0 0 0 151.796 68.325 A 22.442 22.442 0 0 0 159.4 73.2 A 25.537 25.537 0 0 0 163.713 74.465 A 30.993 30.993 0 0 0 169.85 75.05 A 32.784 32.784 0 0 0 173.423 74.86 A 26.334 26.334 0 0 0 180.275 73.2 A 25.404 25.404 0 0 0 180.312 73.186 A 22.147 22.147 0 0 0 188.25 67.9 A 22.092 22.092 0 0 0 190.342 65.357 A 24.94 24.94 0 0 0 193.35 59.55 Q 195.15 54.65 195.15 48.55 A 36.832 36.832 0 0 0 194.918 44.35 A 29.147 29.147 0 0 0 193.35 37.6 A 26.929 26.929 0 0 0 192.557 35.671 A 22.518 22.518 0 0 0 188.25 29.3 Q 184.95 25.9 180.275 24.05 A 25.259 25.259 0 0 0 175.979 22.785 Z M 169.85 65.55 A 15.023 15.023 0 0 0 173.609 65.109 A 9.803 9.803 0 0 0 179.325 61.25 Q 181.522 58.178 182.149 53.065 A 36.341 36.341 0 0 0 182.4 48.65 A 35.938 35.938 0 0 0 182.115 43.959 Q 181.463 39.025 179.325 36 Q 176.25 31.65 169.85 31.65 A 15.287 15.287 0 0 0 166.12 32.077 A 9.901 9.901 0 0 0 160.25 36.025 A 14.694 14.694 0 0 0 158.257 40.173 Q 157.15 43.719 157.15 48.65 A 35.23 35.23 0 0 0 157.438 53.313 Q 157.746 55.612 158.383 57.494 A 14.143 14.143 0 0 0 160.25 61.225 A 9.995 9.995 0 0 0 166.55 65.227 A 15.89 15.89 0 0 0 169.85 65.55 Z M 260.05 61.05 L 260.05 52.4 Q 254.65 52.65 251.025 53.325 Q 248.478 53.799 246.634 54.459 A 15.29 15.29 0 0 0 245.2 55.05 A 11.158 11.158 0 0 0 243.866 55.795 Q 242.689 56.57 242.075 57.5 Q 241.15 58.9 241.15 60.55 Q 241.15 62.68 241.977 64.015 A 4.155 4.155 0 0 0 243.075 65.2 A 6.935 6.935 0 0 0 245.452 66.292 Q 246.647 66.6 248.1 66.6 Q 250 66.6 251.6 66.25 Q 253.2 65.9 254.625 65.2 Q 256.05 64.5 257.375 63.475 A 22.791 22.791 0 0 0 258.957 62.126 A 28.522 28.522 0 0 0 260.05 61.05 Z" vector-effect="non-scaling-stroke"/></g></svg>