<svg width="50" height="50" viewBox="0 0 50 50" fill="none" xmlns="http://www.w3.org/2000/svg">
<path d="M50 25C50 38.8071 38.8071 50 25 50C11.1929 50 0 38.8071 0 25C0 11.1929 11.1929 0 25 0C38.8071 0 50 11.1929 50 25Z" fill="#F47820"/>
<path d="M13.3237 20.4343V30.1313H11.3066V20.4343H13.3237Z" fill="white"/>
<path d="M18.2254 30.2733C17.49 30.2733 16.8539 30.1171 16.3173 29.8046C15.7838 29.4889 15.3719 29.0502 15.0815 28.4883C14.7911 27.9233 14.6459 27.2683 14.6459 26.5233C14.6459 25.7721 14.7911 25.1155 15.0815 24.5536C15.3719 23.9886 15.7838 23.5499 16.3173 23.2374C16.8539 22.9217 17.49 22.7639 18.2254 22.7639C18.9609 22.7639 19.5954 22.9217 20.1288 23.2374C20.6655 23.5499 21.079 23.9886 21.3694 24.5536C21.6598 25.1155 21.805 25.7721 21.805 26.5233C21.805 27.2683 21.6598 27.9233 21.3694 28.4883C21.079 29.0502 20.6655 29.4889 20.1288 29.8046C19.5954 30.1171 18.9609 30.2733 18.2254 30.2733ZM18.2349 28.7108C18.5695 28.7108 18.8489 28.6161 19.073 28.4268C19.2971 28.2342 19.466 27.9722 19.5796 27.6408C19.6964 27.3093 19.7548 26.9321 19.7548 26.5091C19.7548 26.0862 19.6964 25.7089 19.5796 25.3775C19.466 25.0461 19.2971 24.7841 19.073 24.5915C18.8489 24.399 18.5695 24.3027 18.2349 24.3027C17.8972 24.3027 17.6131 24.399 17.3826 24.5915C17.1554 24.7841 16.9833 25.0461 16.8665 25.3775C16.7529 25.7089 16.6961 26.0862 16.6961 26.5091C16.6961 26.9321 16.7529 27.3093 16.8665 27.6408C16.9833 27.9722 17.1554 28.2342 17.3826 28.4268C17.6131 28.6161 17.8972 28.7108 18.2349 28.7108Z" fill="white"/>
<path d="M26.3931 33.0101C25.7396 33.0101 25.1794 32.9201 24.7122 32.7402C24.2482 32.5634 23.8788 32.322 23.6042 32.0158C23.3296 31.7096 23.1513 31.3655 23.0692 30.9836L24.9347 30.7326C24.9915 30.8778 25.0815 31.0136 25.2046 31.1398C25.3277 31.2661 25.4903 31.3671 25.6923 31.4429C25.8975 31.5218 26.1468 31.5612 26.4404 31.5612C26.8792 31.5612 27.2406 31.4539 27.5247 31.2393C27.8119 31.0278 27.9556 30.6726 27.9556 30.1739V28.8434H27.8703C27.7819 29.0454 27.6494 29.2364 27.4726 29.4163C27.2958 29.5963 27.0686 29.743 26.7908 29.8567C26.513 29.9703 26.1816 30.0271 25.7965 30.0271C25.2504 30.0271 24.7532 29.9009 24.305 29.6483C23.8599 29.3927 23.5048 29.0028 23.2396 28.4788C22.9776 27.9517 22.8467 27.2857 22.8467 26.4807C22.8467 25.6569 22.9808 24.9687 23.2491 24.4163C23.5174 23.8639 23.8741 23.4504 24.3192 23.1758C24.7674 22.9012 25.2583 22.7639 25.7917 22.7639C26.1989 22.7639 26.5398 22.8333 26.8145 22.9722C27.0891 23.1079 27.31 23.2784 27.4773 23.4836C27.6478 23.6856 27.7788 23.8845 27.8703 24.0802H27.9461V22.8586H29.9489V30.2023C29.9489 30.821 29.7974 31.3387 29.4944 31.7554C29.1913 32.172 28.7715 32.4845 28.2349 32.6929C27.7015 32.9043 27.0875 33.0101 26.3931 33.0101ZM26.4357 28.512C26.7608 28.512 27.0354 28.4315 27.2595 28.2705C27.4868 28.1064 27.6604 27.8728 27.7804 27.5697C27.9035 27.2636 27.965 26.8974 27.965 26.4713C27.965 26.0451 27.905 25.6758 27.7851 25.3633C27.6651 25.0476 27.4915 24.803 27.2643 24.6294C27.037 24.4558 26.7608 24.369 26.4357 24.369C26.1042 24.369 25.8249 24.4589 25.5976 24.6389C25.3703 24.8156 25.1983 25.0619 25.0815 25.3775C24.9647 25.6932 24.9063 26.0577 24.9063 26.4713C24.9063 26.8911 24.9647 27.2541 25.0815 27.5603C25.2014 27.8633 25.3735 28.0985 25.5976 28.2658C25.8249 28.4299 26.1042 28.512 26.4357 28.512Z" fill="white"/>
<path d="M34.84 30.2733C34.1045 30.2733 33.4685 30.1171 32.9319 29.8046C32.3984 29.4889 31.9865 29.0502 31.6961 28.4883C31.4057 27.9233 31.2605 27.2683 31.2605 26.5233C31.2605 25.7721 31.4057 25.1155 31.6961 24.5536C31.9865 23.9886 32.3984 23.5499 32.9319 23.2374C33.4685 22.9217 34.1045 22.7639 34.84 22.7639C35.5755 22.7639 36.21 22.9217 36.7434 23.2374C37.28 23.5499 37.6936 23.9886 37.984 24.5536C38.2744 25.1155 38.4196 25.7721 38.4196 26.5233C38.4196 27.2683 38.2744 27.9233 37.984 28.4883C37.6936 29.0502 37.28 29.4889 36.7434 29.8046C36.21 30.1171 35.5755 30.2733 34.84 30.2733ZM34.8495 28.7108C35.1841 28.7108 35.4634 28.6161 35.6876 28.4268C35.9117 28.2342 36.0806 27.9722 36.1942 27.6408C36.311 27.3093 36.3694 26.9321 36.3694 26.5091C36.3694 26.0862 36.311 25.7089 36.1942 25.3775C36.0806 25.0461 35.9117 24.7841 35.6876 24.5915C35.4634 24.399 35.1841 24.3027 34.8495 24.3027C34.5117 24.3027 34.2276 24.399 33.9972 24.5915C33.7699 24.7841 33.5979 25.0461 33.4811 25.3775C33.3675 25.7089 33.3107 26.0862 33.3107 26.5091C33.3107 26.9321 33.3675 27.3093 33.4811 27.6408C33.5979 27.9722 33.7699 28.2342 33.9972 28.4268C34.2276 28.6161 34.5117 28.7108 34.8495 28.7108Z" fill="white"/>
</svg>
