<svg id="user" xmlns="http://www.w3.org/2000/svg" width="9.905" height="11.873" viewBox="0 0 9.905 11.873">
  <path id="Path_219" data-name="Path 219" d="M89.891,5.719a2.767,2.767,0,0,0,2.022-.838,2.767,2.767,0,0,0,.838-2.022A2.767,2.767,0,0,0,91.913.838a2.859,2.859,0,0,0-4.044,0,2.767,2.767,0,0,0-.838,2.022,2.767,2.767,0,0,0,.838,2.022A2.768,2.768,0,0,0,89.891,5.719Zm0,0" transform="translate(-85.013)" fill="#7e9f44"/>
  <path id="Path_220" data-name="Path 220" d="M9.881,250.711a7.062,7.062,0,0,0-.1-.75,5.91,5.91,0,0,0-.185-.754,3.725,3.725,0,0,0-.31-.7,2.655,2.655,0,0,0-.468-.609,2.062,2.062,0,0,0-.672-.422,2.321,2.321,0,0,0-.857-.155.87.87,0,0,0-.465.2c-.139.091-.3.2-.484.312a2.774,2.774,0,0,1-.626.276,2.432,2.432,0,0,1-1.532,0,2.767,2.767,0,0,1-.626-.276l-.485-.312a.869.869,0,0,0-.465-.2,2.318,2.318,0,0,0-.857.155,2.06,2.06,0,0,0-.672.422,2.654,2.654,0,0,0-.467.609,3.733,3.733,0,0,0-.31.7,5.926,5.926,0,0,0-.184.754,7.039,7.039,0,0,0-.1.75c-.016.227-.024.463-.024.7A1.971,1.971,0,0,0,.586,252.9a2.108,2.108,0,0,0,1.509.55H7.811a2.107,2.107,0,0,0,1.509-.55,1.971,1.971,0,0,0,.586-1.492C9.905,251.173,9.9,250.937,9.881,250.711Zm0,0" transform="translate(0 -241.582)" fill="#7e9f44"/>
</svg>
