<svg xmlns="http://www.w3.org/2000/svg" width="251" height="25.454" viewBox="0 0 251 25.454">
  <path id="Path_246" data-name="Path 246" d="M0,25.454V5.749Q17.73,4.034,35.456,2.727C35.58,3.7,34.4,4.765,36.4,5.09,42.653,5.62,47.342,2,53.6,2.528c.188.509.383,1.032.578,1.551,4.725-.99,9.633-2.2,14.653-3.286Q82.906.19,96.883.032c-.191.594-.26,1.135.682,1.282,3.894.158,9.19-.764,14.712-1.313l2.465.1a1.928,1.928,0,0,1,1.005,1.175c2.5-.229,4.71-.538,6.758-.85C149.962,1.637,177.9,3.3,208.165,4.671a168.029,168.029,0,0,0,19.1,2.159c7.268-.064,16.025-1.308,23.738-2.245V25.454Z" fill="#fff" opacity="0.996" style="isolation: isolate"/>
</svg>
