<svg xmlns="http://www.w3.org/2000/svg" width="305" height="455" viewBox="0 0 305 455">
  <g id="Group_34828" data-name="Group 34828" transform="translate(-239 -22)">
    <rect id="Rectangle_4464" data-name="Rectangle 4464" width="305" height="455" transform="translate(239 22)" fill="none"/>
    <g id="logo-wellms" transform="translate(206.72 -164.64)">
      <g id="Group_34818" data-name="Group 34818" transform="translate(172.083 223.901)">
        <path id="Path_30336" data-name="Path 30336" d="M338.533,297.932,331.85,280.4h3.737l4.705,13.294,4.851-13.294h2.8l4.778,13.367L357.5,280.4h3.556l-6.683,17.532h-3.305l-4.635-12.538-4.6,12.538Z" transform="translate(-331.85 -272.602)"/>
        <path id="Path_30337" data-name="Path 30337" d="M447.291,297.477a9.3,9.3,0,0,1-6.791-2.424,8.842,8.842,0,0,1-2.48-6.628,9.986,9.986,0,0,1,1.1-4.761,8.008,8.008,0,0,1,3.037-3.215,8.558,8.558,0,0,1,4.455-1.149,7.3,7.3,0,0,1,5.712,2.316,9.2,9.2,0,0,1,2.083,6.377v1.222H441.541q.394,5.461,5.785,5.461a9.61,9.61,0,0,0,2.964-.467,8.149,8.149,0,0,0,2.748-1.546l1.079,2.515a8.342,8.342,0,0,1-3.054,1.689A12.121,12.121,0,0,1,447.291,297.477Zm-.54-15.63a4.724,4.724,0,0,0-3.594,1.4,6.373,6.373,0,0,0-1.616,3.737h9.808a5.973,5.973,0,0,0-1.292-3.789A4.169,4.169,0,0,0,446.751,281.847Z" transform="translate(-407.048 -271.823)"/>
        <path id="Path_30338" data-name="Path 30338" d="M513.452,279.324a5.417,5.417,0,0,1-4.294-1.616,6.992,6.992,0,0,1-1.418-4.743V253.67h3.629v19.078q0,3.557,2.911,3.556c.289,0,.557-.012.808-.035a4.769,4.769,0,0,0,.773-.143l-.073,2.911A10.345,10.345,0,0,1,513.452,279.324Z" transform="translate(-456.43 -253.67)"/>
        <path id="Path_30339" data-name="Path 30339" d="M551.132,279.324a5.417,5.417,0,0,1-4.294-1.616,6.991,6.991,0,0,1-1.418-4.743V253.67h3.629v19.078q0,3.557,2.911,3.556c.289,0,.557-.012.808-.035a4.767,4.767,0,0,0,.773-.143l-.073,2.911A10.308,10.308,0,0,1,551.132,279.324Z" transform="translate(-483.118 -253.67)"/>
        <path id="Path_30340" data-name="Path 30340" d="M583.36,297.146V279.614h3.521v2.838a5.747,5.747,0,0,1,2.191-2.337,6.313,6.313,0,0,1,3.27-.826q4.026,0,5.21,3.521a6.2,6.2,0,0,1,2.372-2.587,6.679,6.679,0,0,1,3.521-.934q5.894,0,5.893,7.042v10.814h-3.629V286.51a5.518,5.518,0,0,0-.773-3.27A2.947,2.947,0,0,0,602.4,282.2a3.853,3.853,0,0,0-3.127,1.383,5.689,5.689,0,0,0-1.149,3.754v9.808H594.5V286.507a5.618,5.618,0,0,0-.755-3.27,2.9,2.9,0,0,0-2.515-1.041,3.793,3.793,0,0,0-3.107,1.383,5.748,5.748,0,0,0-1.132,3.754v9.808H583.36Z" transform="translate(-509.99 -271.816)"/>
        <path id="Path_30341" data-name="Path 30341" d="M693.47,297.463a14.026,14.026,0,0,1-4.023-.557,9.117,9.117,0,0,1-3.127-1.564l1.042-2.445a10.533,10.533,0,0,0,2.929,1.438,10.651,10.651,0,0,0,3.215.5,4.986,4.986,0,0,0,2.873-.683,2.13,2.13,0,0,0,.971-1.832,1.765,1.765,0,0,0-.648-1.456,4.776,4.776,0,0,0-1.94-.808l-3.413-.683q-4.529-.932-4.527-4.67a4.684,4.684,0,0,1,1.975-3.953,8.433,8.433,0,0,1,5.175-1.473,11.355,11.355,0,0,1,3.5.54,7.052,7.052,0,0,1,2.786,1.616l-1.041,2.445a7.768,7.768,0,0,0-2.48-1.438,8.136,8.136,0,0,0-2.765-.5,4.823,4.823,0,0,0-2.839.7,2.21,2.21,0,0,0-.971,1.887q0,1.8,2.372,2.3l3.413.683a7.218,7.218,0,0,1,3.539,1.581,3.914,3.914,0,0,1,1.2,3.019,4.581,4.581,0,0,1-1.975,3.935A8.824,8.824,0,0,1,693.47,297.463Z" transform="translate(-582.915 -271.809)"/>
      </g>
      <path id="Path_30342" data-name="Path 30342" d="M155.1,234.28c.37-1.777.683-3.565.928-5.376a43.461,43.461,0,0,0,.432-5.54v0a19.625,19.625,0,0,0-.321-3.638c-.032-.155-.067-.306-.1-.461s-.064-.306-.108-.461c-.085-.306-.163-.613-.274-.919a10.487,10.487,0,0,0-.785-1.8,8.749,8.749,0,0,0-2.722-3.054c-.035-.026-.073-.05-.108-.076l-.111-.07-.225-.14c-.152-.09-.306-.172-.461-.254a8.334,8.334,0,0,0-.968-.414,8.109,8.109,0,0,0-1.018-.289l-.265-.052c-.09-.015-.181-.029-.271-.041s-.184-.023-.283-.032c-.047-.006-.1-.009-.155-.012l-.047,0a.316.316,0,0,1-.053,0l-.105,0h0l-.105,0a.316.316,0,0,0-.053,0l-.047,0c-.055,0-.105.006-.155.012-.1.009-.19.02-.283.032s-.181.026-.271.041l-.265.052a7.838,7.838,0,0,0-1.018.289,8.333,8.333,0,0,0-.969.414c-.155.082-.309.166-.461.254l-.225.14-.111.07c-.035.026-.073.05-.108.076a8.749,8.749,0,0,0-2.722,3.054,10.824,10.824,0,0,0-.785,1.8c-.111.3-.19.613-.274.919-.047.155-.076.306-.108.461s-.067.306-.1.461a20.136,20.136,0,0,0-.321,3.638v0a17.621,17.621,0,0,0,.551,4.134,31.1,31.1,0,0,0,1.216,3.8,56.273,56.273,0,0,0,3.369,7.016c1.2,2.147,2.5,4.227,3.857,6.26-.481,1.327-1,2.634-1.572,3.912a37.167,37.167,0,0,1-2.372,4.51,21.686,21.686,0,0,1-1.424,2.027,13.514,13.514,0,0,1-1.616,1.733c-.146.123-.286.254-.435.362-.073.058-.146.114-.222.172l-.225.158c-.038.026-.076.053-.111.079l-.114.07-.228.14-.23.123-.114.061-.117.053-.23.105c-.079.029-.155.058-.233.085a2.176,2.176,0,0,1-.233.076l-.117.035a.854.854,0,0,1-.117.029l-.233.05a.537.537,0,0,1-.117.018c-.038.006-.079.009-.117.015s-.079.012-.117.015-.079,0-.117.006c-.079,0-.155.006-.233.012h0a6.6,6.6,0,0,1-2.841-.624,7.647,7.647,0,0,1-1.488-.919,20.369,20.369,0,0,0,1.161-1.7,26.063,26.063,0,0,0,1.771-3.5,39.806,39.806,0,0,0,2.223-7.328q.385-1.864.616-3.76a33.458,33.458,0,0,0,.257-3.862v0a9.566,9.566,0,0,0-.516-3.177,1.839,1.839,0,0,0-.076-.2c-.026-.064-.055-.131-.082-.2-.055-.131-.108-.263-.175-.388s-.128-.257-.2-.382-.149-.245-.225-.37a7.427,7.427,0,0,0-1.1-1.33,8.293,8.293,0,0,0-2.83-1.721,10.332,10.332,0,0,0-1.532-.432c-.26-.05-.516-.093-.782-.125-.131-.015-.265-.029-.4-.041-.067-.006-.14-.009-.207-.015l-.111-.006a.429.429,0,0,1-.061,0h-.163a.429.429,0,0,0-.061,0l-.111.006c-.07.006-.143.009-.207.015-.137.012-.268.023-.4.041-.265.032-.522.076-.782.125a10.329,10.329,0,0,0-1.532.432,8.292,8.292,0,0,0-2.83,1.721,7.427,7.427,0,0,0-1.1,1.33c-.076.123-.149.245-.225.37s-.131.254-.2.382a3.851,3.851,0,0,0-.175.388c-.026.064-.055.131-.082.2s-.055.131-.076.2a9.554,9.554,0,0,0-.516,3.177v0a33.495,33.495,0,0,0,.257,3.862q.228,1.9.616,3.76a39.805,39.805,0,0,0,2.223,7.328,26.065,26.065,0,0,0,1.771,3.5,19.043,19.043,0,0,0,1.161,1.7,7.938,7.938,0,0,1-1.488.919,6.66,6.66,0,0,1-2.841.624h0c-.079-.006-.155-.009-.233-.012-.038,0-.079,0-.117-.006s-.079-.012-.117-.015-.079-.009-.117-.015a.806.806,0,0,1-.117-.018l-.233-.05a.854.854,0,0,1-.117-.029l-.117-.035a1.809,1.809,0,0,1-.233-.076c-.079-.029-.155-.058-.233-.085l-.23-.105-.117-.053-.114-.061-.23-.123-.228-.14-.114-.07c-.038-.026-.076-.053-.111-.079l-.225-.158c-.073-.058-.146-.114-.222-.172-.149-.111-.292-.239-.435-.362a13.513,13.513,0,0,1-1.616-1.733A22.834,22.834,0,0,1,117.99,253a37.586,37.586,0,0,1-2.372-4.51q-.853-1.917-1.572-3.912c1.356-2.033,2.655-4.113,3.857-6.26a56.273,56.273,0,0,0,3.369-7.016,31.1,31.1,0,0,0,1.216-3.8,17.643,17.643,0,0,0,.551-4.134v0a19.622,19.622,0,0,0-.321-3.638c-.032-.155-.067-.306-.1-.461s-.064-.306-.108-.461c-.085-.306-.163-.613-.274-.919a10.488,10.488,0,0,0-.785-1.8,8.749,8.749,0,0,0-2.722-3.054c-.035-.026-.073-.05-.108-.076l-.111-.07-.225-.14c-.152-.09-.306-.172-.461-.254a8.335,8.335,0,0,0-.969-.414,8.11,8.11,0,0,0-1.018-.289l-.265-.052c-.09-.015-.181-.029-.271-.041s-.184-.023-.283-.032c-.047-.006-.1-.009-.155-.012l-.047,0a.316.316,0,0,1-.053,0l-.105,0h0l-.105,0a.316.316,0,0,0-.053,0l-.047,0c-.055,0-.105.006-.155.012-.1.009-.19.02-.283.032s-.181.026-.271.041l-.265.052a7.839,7.839,0,0,0-1.018.289,8.332,8.332,0,0,0-.968.414c-.155.082-.309.166-.461.254l-.225.14-.111.07c-.035.026-.073.05-.108.076a8.749,8.749,0,0,0-2.722,3.054,10.824,10.824,0,0,0-.785,1.8c-.111.3-.19.613-.274.919-.047.155-.076.306-.108.461s-.067.306-.1.461a20.136,20.136,0,0,0-.321,3.638v0a43.458,43.458,0,0,0,.432,5.54q.368,2.713.928,5.376t1.269,5.289q.617,2.271,1.371,4.513-.669.971-1.359,1.931-.543.753-1.1,1.5c-.37.493-.747.989-1.12,1.462,0,0-.015.02-.047.058h0a1.7,1.7,0,1,0,2.66,2.106l.047-.061c.405-.513.791-1.021,1.176-1.534s.761-1.027,1.135-1.546c.012-.015.023-.032.035-.05q.389.967.814,1.925a40.556,40.556,0,0,0,2.593,4.924,25.425,25.425,0,0,0,1.642,2.337c.3.379.618.75.951,1.111.166.181.344.356.516.534s.362.347.551.513.382.336.589.49c.1.079.2.16.306.236s.216.149.321.225c.052.038.108.076.16.111l.169.1.341.21c.12.064.239.128.356.193l.178.1c.061.029.125.058.187.085l.376.169.394.146a3.61,3.61,0,0,0,.4.128c.067.02.137.038.2.058s.137.038.207.052a7.807,7.807,0,0,0,1.712.2h0a10.237,10.237,0,0,0,2.182-.233,9.985,9.985,0,0,0,2.086-.706,11.291,11.291,0,0,0,2.413-1.532,11.291,11.291,0,0,0,2.413,1.532,9.985,9.985,0,0,0,2.086.706,10.235,10.235,0,0,0,2.182.233h0a7.828,7.828,0,0,0,1.712-.2c.07-.015.137-.032.207-.052s.137-.038.2-.058c.137-.038.271-.079.4-.128s.263-.1.391-.146.251-.111.376-.169c.061-.029.125-.058.187-.085l.178-.1c.12-.064.239-.128.356-.193l.341-.21.169-.1c.053-.038.108-.076.16-.111.108-.076.216-.149.321-.225s.2-.158.306-.236c.207-.155.394-.327.589-.49s.37-.341.551-.513.35-.353.516-.534c.333-.362.653-.732.951-1.111a26,26,0,0,0,1.642-2.337,40.774,40.774,0,0,0,2.593-4.924c.286-.639.554-1.281.814-1.925.012.015.023.032.035.05q.56.775,1.135,1.546c.385.513.77,1.018,1.176,1.534l.009.009a1.7,1.7,0,1,0,2.7-2.057l0,0c-.032-.038-.047-.058-.047-.058-.373-.473-.75-.969-1.12-1.462s-.738-.995-1.1-1.5q-.691-.958-1.359-1.931.753-2.24,1.371-4.513C154.311,237.819,154.732,236.057,155.1,234.28Zm-45.415-10.916h0a16.538,16.538,0,0,1,.26-3c.026-.12.053-.236.079-.356s.047-.239.082-.353c.064-.23.123-.461.2-.68a7.464,7.464,0,0,1,.543-1.254c.055-.1.105-.2.166-.286l.178-.274.193-.26a1.013,1.013,0,0,1,.1-.122l.1-.12a4.965,4.965,0,0,1,.928-.826c.02-.015.041-.029.064-.044s.044-.026.064-.041c.044-.026.088-.055.131-.082.088-.052.178-.1.268-.149a5.033,5.033,0,0,1,.563-.242,4.718,4.718,0,0,1,.583-.166c.05-.009.1-.017.146-.029l.14-.02c.044-.006.09-.012.131-.015a.39.39,0,0,1,.055,0h.012c.015,0,.032,0,.055,0,.041,0,.085.009.131.015l.14.02c.05.009.1.018.146.029a4.716,4.716,0,0,1,.583.166,4.809,4.809,0,0,1,.563.242c.09.05.181.1.268.149.044.026.088.055.131.082.02.015.044.026.064.041s.041.029.064.044a5.168,5.168,0,0,1,.928.826l.1.12a1.3,1.3,0,0,1,.1.122l.193.257.178.274c.058.09.108.193.166.286a7.234,7.234,0,0,1,.543,1.254c.082.219.14.452.2.68.035.114.055.233.082.353l.079.356a16.54,16.54,0,0,1,.26,3v0a14.329,14.329,0,0,1-.455,3.331,28.049,28.049,0,0,1-1.082,3.381,53.18,53.18,0,0,1-3.165,6.584c-.715,1.275-1.47,2.532-2.255,3.775-.172-.583-.341-1.17-.5-1.759-.461-1.68-.863-3.378-1.219-5.085s-.656-3.422-.887-5.137A39.162,39.162,0,0,1,109.687,223.364Zm17.509,20.3c-.239-1.152-.429-2.316-.569-3.48a30.484,30.484,0,0,1-.233-3.457v0a6.227,6.227,0,0,1,.318-2.03.626.626,0,0,1,.044-.111c.015-.038.029-.073.047-.111a1.8,1.8,0,0,1,.1-.216l.105-.207c.041-.064.082-.131.12-.2a4.217,4.217,0,0,1,.583-.706,4.89,4.89,0,0,1,1.672-1,6.806,6.806,0,0,1,1.018-.286c.175-.032.353-.064.525-.085.088-.012.175-.02.257-.026l.123-.009.079,0,.079,0c.041,0,.079,0,.122.009.085.006.169.015.257.026.175.02.35.05.525.085a6.8,6.8,0,0,1,1.018.286,4.89,4.89,0,0,1,1.672,1,4.1,4.1,0,0,1,.583.706c.038.067.079.131.12.2l.105.207a1.616,1.616,0,0,1,.1.216c.015.038.029.073.047.111s.032.073.044.111a6.24,6.24,0,0,1,.318,2.03v0a29.828,29.828,0,0,1-.233,3.457c-.14,1.164-.333,2.328-.569,3.48a36.588,36.588,0,0,1-2.027,6.7,22.728,22.728,0,0,1-1.54,3.046c-.2.321-.4.627-.616.931-.213-.3-.42-.61-.616-.931a22.724,22.724,0,0,1-1.54-3.046A36.359,36.359,0,0,1,127.2,243.665Zm25.872-20.3a39.671,39.671,0,0,1-.4,5.09c-.23,1.715-.531,3.431-.887,5.137s-.761,3.4-1.219,5.085c-.16.589-.33,1.176-.5,1.759-.785-1.243-1.54-2.5-2.255-3.775a52.765,52.765,0,0,1-3.165-6.584,27.044,27.044,0,0,1-1.082-3.381,14.328,14.328,0,0,1-.455-3.331v0a16.582,16.582,0,0,1,.26-3c.026-.12.053-.236.079-.356s.047-.239.082-.353c.064-.23.123-.461.2-.68a7.465,7.465,0,0,1,.543-1.254c.055-.1.105-.2.166-.286l.178-.274.193-.257a1.01,1.01,0,0,1,.1-.122l.1-.12a4.966,4.966,0,0,1,.928-.826c.02-.015.041-.029.064-.044s.044-.026.064-.041c.044-.026.088-.055.131-.082.088-.052.178-.1.268-.149a5.032,5.032,0,0,1,.563-.242,4.716,4.716,0,0,1,.583-.166c.05-.009.1-.017.146-.029l.14-.02c.044-.006.09-.012.131-.015a.39.39,0,0,1,.055,0h.012c.015,0,.032,0,.055,0,.041,0,.085.009.131.015l.14.02c.05.009.1.018.146.029a4.716,4.716,0,0,1,.583.166,4.807,4.807,0,0,1,.563.242c.09.05.181.1.268.149.044.026.088.055.131.082.02.015.044.026.064.041s.041.029.064.044a5.168,5.168,0,0,1,.928.826l.1.12a1.3,1.3,0,0,1,.1.122c.064.085.128.172.193.26l.178.274c.058.09.108.193.166.286a7.235,7.235,0,0,1,.543,1.254c.082.219.14.452.2.68.035.114.055.233.082.353s.053.236.079.356a16.808,16.808,0,0,1,.257,3Z" transform="translate(0)" fill="#0000d9"/>
    </g>
    <g id="Group_34826" data-name="Group 34826" transform="translate(24 -17)">
      <path id="Path_30456" data-name="Path 30456" d="M129.527,0c30.949,0,50.467,4.429,81.925,3.517,29.057,2.845,47.795,7.228,47.795,12.139,0,6.684-34.748,11.6-71.275,12.374s-42.181,3.282-58.444,3.282c-22.209,0-25.663-5.382-60.217-6.4S1.627,18.529,1.627,12.563C1.627,3.917,56.7,4.826,129.527,0Z" transform="translate(225.676 442.771)" fill="#f4f5ff"/>
      <g id="Group_34825" data-name="Group 34825" transform="translate(232.193 128.232)">
        <path id="Path_30343" data-name="Path 30343" d="M631.53,369.625c1.484-.788,3.281-.465,4.962-.374A16.655,16.655,0,0,0,646.68,366.4c2.445-1.671,4.415-3.987,6.952-5.525a13.975,13.975,0,0,1,10.551-1.6c2.221.56,4.265,1.661,6.453,2.377s4.663.975,6.687-.1c2.343-1.236,3.545-3.967,5.773-5.407a11.234,11.234,0,0,1,5.722-1.413,14.61,14.61,0,0,1,6.215.781,8.677,8.677,0,0,1,3.44,13.486c-1.019,1.25-2.377,2.211-3.267,3.539a23.609,23.609,0,0,0-1.739,3.715c-2.319,5.114-8.15,8.813-13.611,7.522-2.224-.526-4.31-1.807-6.6-1.759-2.561.054-4.636,1.732-6.514,3.287-5.485,4.541-13.041,5.688-19.928,4.71a6.357,6.357,0,0,1-3.056-1.219c-1.049-.784-2.652-2.187-2.157-3.688" transform="translate(-472.763 -241.041)"/>
        <path id="Path_30344" data-name="Path 30344" d="M631.121,368.553a7.24,7.24,0,0,1,3.943-.34A16.668,16.668,0,0,0,646.3,365.5c2.187-1.457,3.97-3.423,6.113-4.934a13.614,13.614,0,0,1,7.189-2.486,13.3,13.3,0,0,1,3.807.367,27.914,27.914,0,0,1,3.956,1.426c2.472,1.019,5.094,1.99,7.811,1.5,2.448-.441,3.963-2.248,5.512-4.021a9.76,9.76,0,0,1,2.51-2.228,9.193,9.193,0,0,1,3.613-.981c2.578-.251,5.512-.319,7.879.883a8.022,8.022,0,0,1,2.965,11.818,24.425,24.425,0,0,1-2.574,2.737,10.7,10.7,0,0,0-2.1,3.331,21.459,21.459,0,0,1-1.542,3.24,13.163,13.163,0,0,1-2.1,2.533,12.316,12.316,0,0,1-5.7,3.1,9.806,9.806,0,0,1-3.165.18,14.92,14.92,0,0,1-3.532-1,13.026,13.026,0,0,0-3.831-.954,7.576,7.576,0,0,0-3.623.818c-2.207,1.07-3.892,2.938-5.974,4.211a22.186,22.186,0,0,1-6.755,2.659,28.184,28.184,0,0,1-7.223.6,23.217,23.217,0,0,1-3.6-.34,6.394,6.394,0,0,1-3.022-1.549c-.679-.6-1.555-1.471-1.263-2.462a.64.64,0,0,0-1.233-.34,3.3,3.3,0,0,0,1.019,3.169,8.293,8.293,0,0,0,2.917,2.092,12.955,12.955,0,0,0,3.844.71,29.981,29.981,0,0,0,3.787.088,24.71,24.71,0,0,0,14.263-4.863c1.909-1.494,3.875-3.4,6.452-3.43a10.854,10.854,0,0,1,3.9.917,16.467,16.467,0,0,0,3.78,1.019c4.7.557,9.3-2.2,11.93-5.963a16.477,16.477,0,0,0,1.7-3.267,10.67,10.67,0,0,1,1.98-3.433,32.477,32.477,0,0,0,2.717-2.9,9.377,9.377,0,0,0,.261-10.664,9.61,9.61,0,0,0-6.089-4.075,18.263,18.263,0,0,0-4.323-.272,17.347,17.347,0,0,0-4.075.53,8.2,8.2,0,0,0-3.325,1.817,29.893,29.893,0,0,0-2.353,2.591,8.1,8.1,0,0,1-2.666,2.177,7.053,7.053,0,0,1-3.875.394c-2.876-.431-5.41-1.99-8.191-2.747a14.461,14.461,0,0,0-7.892.112,18.3,18.3,0,0,0-6.792,4.153,23.065,23.065,0,0,1-6.792,4.656,16.356,16.356,0,0,1-3.973,1.019,25.113,25.113,0,0,1-4.075.054,7.224,7.224,0,0,0-3.736.56c-.34.177-.041.679.292.5Z" transform="translate(-472.194 -239.718)"/>
        <path id="Path_30345" data-name="Path 30345" d="M534.863,385.518c-.968-2.819-2.693-8.466-4.625-11.591-10.918-17.632-18.519-37.105-25.022-56.8-.489-1.484-.937-3.247,0-4.51.374-.513.951-.886,1.178-1.477.584-1.508-1.43-3.175-.737-4.632.4-.846,1.481-1.07,2.411-1.189l4.574-.587c.842-.109.34-.211.944.391.272.275.445,1.756.642,2.085.34.554.679.224,1.121.679,3.7,3.675,5.675,8.354,7.247,13.245a72.091,72.091,0,0,0,2.54,7.577c3.4,7.556,6.619,15.3,10.837,22.445,1.07,1.841,2.768,5.043,4.493,6.3a22.677,22.677,0,0,1,4.673,4c.18.214,6.031-.3,6.167-.054,1.379,2.472-4.938.268-2.34,1.389.713.306-2.89,0-2.252.445,2.109,1.437,2.068,4.622,1.08,6.975" transform="translate(-388.984 -207.98)"/>
        <path id="Path_30346" data-name="Path 30346" d="M534.074,384.406c-.91-2.717-1.742-5.464-2.832-8.12a75.771,75.771,0,0,0-4.755-8.714A216.756,216.756,0,0,1,516.422,347.3c-3.029-6.938-5.739-14.009-8.273-21.137-1.246-3.512-2.51-7.033-3.617-10.592a7.13,7.13,0,0,1-.408-2.333,2.894,2.894,0,0,1,1.019-1.977,2.5,2.5,0,0,0,.795-1.888,5.642,5.642,0,0,0-.588-1.875,2.417,2.417,0,0,1-.34-1.7c.217-.621.964-.8,1.538-.914,1.8-.34,3.654-.384,5.454-.723.309-.058-.238,0-.3-.2a1.139,1.139,0,0,0,.2.272.923.923,0,0,1,.292.5,10.162,10.162,0,0,0,.431,1.62,1.3,1.3,0,0,0,.679.649c.109.041.224.058.34.1a1.311,1.311,0,0,1,.5.387A21.8,21.8,0,0,1,515.8,309.4a32.321,32.321,0,0,1,4.561,8.955c.608,1.729,1.117,3.488,1.647,5.24a45.741,45.741,0,0,0,2.017,5.362c3.135,7.06,6.154,14.2,10.035,20.893.764,1.314,1.5,2.652,2.333,3.926a11.966,11.966,0,0,0,2.883,3.274,25.184,25.184,0,0,1,3.79,3.128c.37.394.6.818,1.168.869a8.328,8.328,0,0,0,.92,0c.985-.024,1.97-.085,2.951-.126.441-.017.883-.037,1.324-.041h.632c-.146-.017,0,.024-.085-.02s-.2-.146-.211-.136.048.17.024.051a1.819,1.819,0,0,0,.054.194c-.034-.1,0-.081,0-.031,0,.115-.024-.058,0-.027s0,.234.02-.031c0,.088.051-.071.024-.024s.1-.044-.034.024c-.071.037.109-.02-.037.017l-.194.044c-.034,0-.143.02,0,0h-.149a7.086,7.086,0,0,1-.968-.037l-.211-.024-.166-.02-.34-.051a1.253,1.253,0,0,0-.8.037.632.632,0,0,0,.051,1.1,2.365,2.365,0,0,0,.292.146,1.773,1.773,0,0,0,.217.1.7.7,0,0,0,.1.041q.442.255.041-.948l.1-.044c-.082.054-.082,0-.024,0h-.221a5.164,5.164,0,0,0-.56.02c-.588,0-2.105-.105-1.977.863a.744.744,0,0,0,.357.52,3.353,3.353,0,0,1,.679.652,3.977,3.977,0,0,1,.71,1.8,7.539,7.539,0,0,1-.533,3.865.54.54,0,0,0,.377.659.554.554,0,0,0,.679-.374,8.208,8.208,0,0,0,.662-4.2,5.435,5.435,0,0,0-.632-1.993,4.437,4.437,0,0,0-.591-.808,3.647,3.647,0,0,0-.34-.34c-.068-.054-.136-.109-.207-.16s-.088-.068-.132-.1-.061-.041.027.024v.744l-.085.071-.092.037h.048a.458.458,0,0,1,.1-.02h-.017c.19-.024.384-.031.574-.037.38,0,.764,0,1.148-.034s.971-.183.9-.751c-.054-.435-.479-.547-.818-.706a.673.673,0,0,0-.109-.058c-.092-.031.027,0,0,0l.048.037q-.377-.34-.265.958c-.054.044-.18,0-.081.02a.667.667,0,0,0,.143,0c.126,0-.146-.02.031,0l.166.024.591.081a4.136,4.136,0,0,0,1.956-.085,1.277,1.277,0,0,0,.509-1.983c-.37-.554-1.413-.367-1.973-.34-1.019.034-2.038.1-3.08.136-.394,0-.795.034-1.192.027h-.19c-.115,0-.126-.065,0,0-.153-.088.156.139.177.126s-.5-.57-.53-.6a24.729,24.729,0,0,0-3.79-3.148,11.494,11.494,0,0,1-2.934-3.332,154.349,154.349,0,0,1-10.222-20q-1.2-2.7-2.411-5.393a45.046,45.046,0,0,1-1.946-5.593,50.267,50.267,0,0,0-3.858-9.849,25.469,25.469,0,0,0-2.931-4.126c-.275-.34-.557-.642-.849-.947a2.935,2.935,0,0,0-.985-.808c-.2-.078-.448-.1-.513-.241a3.9,3.9,0,0,1-.2-.815c-.061-.261-.119-.53-.2-.785a2.381,2.381,0,0,0-.462-.74,1.32,1.32,0,0,0-.34-.384.993.993,0,0,0-.7-.017c-1.827.312-3.712.36-5.525.74a2.989,2.989,0,0,0-1.878,1.043,2.242,2.242,0,0,0-.319,1.844c.248,1.124,1.477,2.5.557,3.579a5.208,5.208,0,0,0-1.331,1.936,5.121,5.121,0,0,0,0,2.411,20.461,20.461,0,0,0,.744,2.513q.458,1.375.92,2.744c2.472,7.315,5.114,14.572,8.062,21.711a227.525,227.525,0,0,0,9.753,20.842c1.807,3.369,3.708,6.694,5.733,9.937a42.466,42.466,0,0,1,3.844,8.49c.428,1.209.832,2.425,1.26,3.634.129.367.71.214.588-.163Z" transform="translate(-387.9 -206.95)"/>
        <g id="Group_34819" data-name="Group 34819" transform="translate(110.479 86.862)">
          <path id="Path_30347" data-name="Path 30347" d="M498.046,288.929a8.194,8.194,0,0,0,3.63-1.3,4.468,4.468,0,0,0,1.566-1.61,4.372,4.372,0,0,0,.34-2.52,7.689,7.689,0,0,0-4.785-6.113,1.445,1.445,0,0,0-1.358,0c-.18.139-.306.36-.52.424a.975.975,0,0,1-.588-.105,4.687,4.687,0,0,0-3.09.071,3.21,3.21,0,0,0-2.228,1.905,3.243,3.243,0,0,0-.027,1.358,8.645,8.645,0,0,0,2.075,4.452" transform="translate(-490.388 -276.726)" fill="#fff"/>
          <path id="Path_30348" data-name="Path 30348" d="M497,288.276a6.982,6.982,0,0,0,3.4-.985,4.957,4.957,0,0,0,2.32-2.377c.808-2.017-.037-4.551-1.28-6.208a8.325,8.325,0,0,0-2.241-2.078c-.808-.506-2.089-1.209-3.019-.635-.146.088-.34.377-.486.4s-.34-.116-.435-.153a3.646,3.646,0,0,0-.5-.126,5.383,5.383,0,0,0-1.837,0,4.929,4.929,0,0,0-2.917,1.47c-.914,1.08-.717,2.506-.34,3.773a8.368,8.368,0,0,0,1.987,3.559c.4.394,1.161-.143.8-.618a10.18,10.18,0,0,1-1.586-2.683,4.315,4.315,0,0,1-.312-2.944,3.15,3.15,0,0,1,2.133-1.447,4.576,4.576,0,0,1,1.576-.173c.54.041,1.07.391,1.606.316a1.019,1.019,0,0,0,.543-.255c.149-.129.248-.3.448-.34a2.354,2.354,0,0,1,1.324.391,7.239,7.239,0,0,1,2.136,1.64,6.775,6.775,0,0,1,1.807,4.958,3.608,3.608,0,0,1-1.878,2.673,8.331,8.331,0,0,1-1.586.788c-.571.207-1.155.309-1.739.462a.3.3,0,0,0,.081.581Z" transform="translate(-489.341 -275.778)" fill="#fff"/>
          <path id="Path_30349" data-name="Path 30349" d="M555.635,601.714q-7.332,14.868-13.659,30.2a143.529,143.529,0,0,0-7.013,20.22,135.723,135.723,0,0,0-2.836,17.344,366.523,366.523,0,0,0-2.231,45.188c.037,3.192-.061,6.826-2.462,8.935a7.413,7.413,0,0,0-1.457,1.359,1.318,1.318,0,0,0,.211,1.79,1.827,1.827,0,0,0,.907.18q7.851.156,15.7-.367a3.649,3.649,0,0,0,2.038-.554,3.4,3.4,0,0,0,1.019-1.824c1.5-4.866,1.759-10.011,2.455-15.058,2.523-18.247,10.816-35.658,10.657-54.082a21.977,21.977,0,0,1,.316-5.244,18.054,18.054,0,0,1,2.038-4.5c3.871-6.911,7.553-14.009,9.713-21.629s2.717-15.87.36-23.433" transform="translate(-513.372 -490.051)" fill="#fff"/>
        </g>
        <path id="Path_30350" data-name="Path 30350" d="M541.372,919.126c-.238-1.019-.479-2.038-.717-3.057l-10.779.088c-.017,2.377-.017,4.724,0,7.088.037,3.192-.061,6.826-2.462,8.935a7.306,7.306,0,0,0-1.457,1.358,1.317,1.317,0,0,0,.211,1.79,1.826,1.826,0,0,0,.907.18q7.852.156,15.7-.367a3.65,3.65,0,0,0,2.038-.553,3.4,3.4,0,0,0,1.019-1.824c1.5-4.867,1.759-10.012,2.455-15.058.071-.5.146-1,.224-1.5a3.1,3.1,0,0,0-.394-.02c-2.608-.007-5.916.431-6.741,2.941Z" transform="translate(-402.88 -611.761)" fill="#001cd9"/>
        <path id="Path_30351" data-name="Path 30351" d="M554.451,600.679q-6.453,12.969-12.127,26.3c-3.695,8.718-7.312,17.534-9.295,26.829A142.032,142.032,0,0,0,530.845,668q-.835,7.373-1.358,14.766-1.076,14.8-.954,29.658a30.785,30.785,0,0,1-.248,5.947,8.418,8.418,0,0,1-.856,2.527,6.989,6.989,0,0,1-1.831,2.01,2.716,2.716,0,0,0-1.219,2.1,1.5,1.5,0,0,0,1.25,1.494,19.983,19.983,0,0,0,3.464.081c1.206,0,2.408,0,3.613-.031q3.678-.061,7.349-.278c1.915-.112,4.16.075,5.06-1.977a26.535,26.535,0,0,0,1.549-6.544c.363-2.282.6-4.581.876-6.877,1.077-9.118,3.529-17.941,5.936-26.781,2.353-8.629,4.595-17.381,5.04-26.353.115-2.3-.054-4.619.115-6.914a15.648,15.648,0,0,1,2.411-6.425c2.224-4.011,4.384-8.066,6.221-12.27,3.614-8.266,6.018-17.32,5.019-26.394a35.2,35.2,0,0,0-1.335-6.48c-.18-.581-1.1-.34-.917.251,2.683,8.694,1.5,18.033-1.43,26.489a91.512,91.512,0,0,1-5.44,12.345c-1.019,1.966-2.1,3.905-3.185,5.834a16.094,16.094,0,0,0-2.313,5.943c-.275,2.18-.051,4.483-.122,6.711s-.255,4.415-.526,6.605a115.746,115.746,0,0,1-2.5,13.037c-2.089,8.572-4.755,17-6.486,25.661-.88,4.394-1.331,8.83-1.905,13.245a50.666,50.666,0,0,1-1.307,6.9c-.255.92-.475,2.207-1.42,2.676a9.247,9.247,0,0,1-3.355.4q-3.545.194-7.1.245-1.81.024-3.617,0h-1.746a6.744,6.744,0,0,1-1.8-.058c-1.27-.387.272-1.8.727-2.163a6.851,6.851,0,0,0,1.654-1.868,11.12,11.12,0,0,0,1.287-5c.132-2.078.024-4.17.017-6.252q0-3.647.051-7.295.119-7.169.516-14.325a288.614,288.614,0,0,1,2.805-28.771,98.112,98.112,0,0,1,3.124-13.713c1.358-4.415,3-8.728,4.727-13,3.542-8.755,7.356-17.4,11.377-25.949q1.467-3.114,2.972-6.2c.19-.387-.387-.727-.581-.34Z" transform="translate(-402.001 -402.324)"/>
        <path id="Path_30352" data-name="Path 30352" d="M618.358,595.227A223.232,223.232,0,0,0,606.4,632.353c-1.7,7.417-3.005,15.055-2.129,22.611.795,6.853,3.355,13.36,5.9,19.772,5.125,12.905,10.361,25.919,18.485,37.166a3.171,3.171,0,0,1,.781,1.7c.027,1.246-1.311,1.99-2.343,2.686s-1.939,2.234-1.019,3.056a2.3,2.3,0,0,0,1.114.438,43.851,43.851,0,0,0,15.877.17,2.361,2.361,0,0,0,1.494-.659,2.317,2.317,0,0,0,.384-1.341c.431-6.792-1.769-13.442-3.216-20.094-3.318-15.248-2.948-31.875-11.207-45.123a5.488,5.488,0,0,1-1.049-2.479,5.035,5.035,0,0,1,.509-2.123c3.444-8.558,7.336-16.96,9.971-25.81s3.977-18.264,2.184-27.311c-.469-2.377-1.735-5.179-4.147-5.22" transform="translate(-454.579 -396.288)" fill="#fff"/>
        <path id="Path_30353" data-name="Path 30353" d="M678.743,930.561a2.36,2.36,0,0,0,1.494-.659,2.315,2.315,0,0,0,.384-1.341c.428-6.724-1.722-13.3-3.169-19.88a6.521,6.521,0,0,0-3.277,1.131c-1.019.822-1.5,2.5-.608,3.471-1.386-.166-1.44-2.4-2.686-3.026a2.763,2.763,0,0,0-1.358-.183A37.65,37.65,0,0,0,658,912.419a99.094,99.094,0,0,0,6.337,10.076,3.172,3.172,0,0,1,.781,1.7c.027,1.246-1.311,1.99-2.343,2.686s-1.939,2.235-1.019,3.056a2.3,2.3,0,0,0,1.114.438,43.841,43.841,0,0,0,15.873.187Z" transform="translate(-490.244 -606.881)" fill="#001cd9"/>
        <path id="Path_30354" data-name="Path 30354" d="M609.884,614.221q-2.231,6.9-3.96,13.948a122.175,122.175,0,0,0-2.758,14.063,48.844,48.844,0,0,0,.146,14.141,70.43,70.43,0,0,0,3.9,13.3c3.182,8.365,6.51,16.732,10.4,24.791a122.936,122.936,0,0,0,6.4,11.733c1.175,1.881,2.506,3.651,3.705,5.508,1.325,2.038-1.379,2.717-2.462,3.95s-1.311,3.056.489,3.617a19.638,19.638,0,0,0,3.331.574c1.155.149,2.316.255,3.478.312a43.9,43.9,0,0,0,7.1-.221,20.7,20.7,0,0,0,3.27-.506,2.068,2.068,0,0,0,1.589-1.606,14.2,14.2,0,0,0,.129-3.311,34.061,34.061,0,0,0-.272-3.4c-.292-2.279-.754-4.534-1.27-6.772-1.019-4.35-2.1-8.66-2.843-13.065-1.4-8.249-2.126-16.641-4.16-24.754a55.877,55.877,0,0,0-4.109-11.448q-.7-1.409-1.5-2.761a7.537,7.537,0,0,1-1.358-2.764c-.146-1.121.53-2.3.937-3.3q.659-1.6,1.321-3.2c3.6-8.643,7.39-17.286,9.509-26.438a61.589,61.589,0,0,0,1.7-13.713,48.558,48.558,0,0,0-.462-6.792,14.74,14.74,0,0,0-1.474-5.3,4.188,4.188,0,0,0-3.461-2.333c-.628-.031-.625.948,0,.975,1.654.075,2.659,1.7,3.186,3.1a23.125,23.125,0,0,1,1.148,5.984,52.09,52.09,0,0,1-.615,13.649c-1.511,8.942-4.846,17.422-8.31,25.752-.869,2.092-1.752,4.184-2.618,6.276-.435,1.06-.88,2.116-1.294,3.182a4.471,4.471,0,0,0-.34,2.758,10.144,10.144,0,0,0,1.277,2.432q.785,1.3,1.474,2.659a46.8,46.8,0,0,1,2.377,5.536c2.717,7.573,3.736,15.622,4.863,23.535.574,4.041,1.155,8.083,1.987,12.08.917,4.415,2.2,8.725,2.9,13.17a35.859,35.859,0,0,1,.465,6.823,3.706,3.706,0,0,1-.245,1.671c-.275.455-.863.523-1.321.6-1.144.207-2.3.34-3.461.452a43.967,43.967,0,0,1-6.853.068c-1.2-.081-2.4-.211-3.586-.394-.537-.085-1.07-.173-1.6-.278s-1.192-.19-1.263-.8c-.095-.822.771-1.579,1.359-1.98a7.551,7.551,0,0,0,1.834-1.487c1.28-1.644-.173-3.209-1.128-4.578a103.949,103.949,0,0,1-6.677-11.03,243.388,243.388,0,0,1-10.575-23.878c-1.65-4.14-3.325-8.283-4.581-12.565a46.271,46.271,0,0,1-1.987-13.622,74.981,74.981,0,0,1,1.718-13.964c.934-4.6,2.038-9.074,3.254-13.56q.9-3.325,1.912-6.626c.119-.387-.482-.547-.6-.166Z" transform="translate(-453.739 -395.415)"/>
        <path id="Path_30355" data-name="Path 30355" d="M622.15,463.2a68.2,68.2,0,0,1-25.841,1.545c-1.491-.2-3.114-.418-4.4.435a5.794,5.794,0,0,0-1.763,2.218,23.085,23.085,0,0,0-2.187,12.158,47.618,47.618,0,0,0,2.771,12.161,22.213,22.213,0,0,1,1.576,6.34c.122,3.233-.679,6.031,1.256,8.806a13.61,13.61,0,0,0,6.867,4.958c4.989,1.7,10.5,1.457,15.622.852,5.688-.679,17.972-2.241,18-10.776a19.732,19.732,0,0,0-.4-3.155c-1.651-10.27,3.736-20.947,1.307-31.03a9.794,9.794,0,0,0-2.377-4.754c-2.635-2.588-6.891-1.983-9.893.075" transform="translate(-443.944 -311.396)"/>
        <path id="Path_30356" data-name="Path 30356" d="M621.137,461.934a70.641,70.641,0,0,1-20.58,1.864c-1.732-.105-3.461-.268-5.182-.5a7.428,7.428,0,0,0-4.218.261,6.423,6.423,0,0,0-2.717,3.345,20.257,20.257,0,0,0-1.447,4.388c-1.359,6.544.149,13.214,2.279,19.422a34.294,34.294,0,0,1,1.457,4.778,21.442,21.442,0,0,1,.129,4.571,11.963,11.963,0,0,0,.411,4.136,9.348,9.348,0,0,0,2.347,3.6c4.462,4.49,11.4,5.094,17.391,4.754,2.3-.132,4.588-.4,6.867-.727a46.226,46.226,0,0,0,5.556-1.114c3.508-.964,7.471-2.608,9.275-6a7.96,7.96,0,0,0,.849-2.683,13.88,13.88,0,0,0-.309-4.167,32.378,32.378,0,0,1,0-9.343c.723-6.181,2.421-12.368,1.82-18.634-.272-2.839-.9-6.113-2.985-8.229A7.316,7.316,0,0,0,625,460.025a10.887,10.887,0,0,0-3.467,1.583c-.526.357-.031,1.219.5.859A8.679,8.679,0,0,1,629,460.993c2.751.771,4.028,3.427,4.632,6.008,1.389,5.923.058,12.039-.856,17.924a54.012,54.012,0,0,0-.825,8.966,28.134,28.134,0,0,0,.411,4.469,10.9,10.9,0,0,1,.2,3.851c-.652,3.624-3.977,5.7-7.189,6.867a45.568,45.568,0,0,1-10.188,2.116,49.2,49.2,0,0,1-9.458.363,20.6,20.6,0,0,1-8.619-2.33c-2.357-1.338-4.619-3.471-5.138-6.232a18.476,18.476,0,0,1-.105-4.018,16.824,16.824,0,0,0-.387-4.5c-.367-1.552-.944-3.056-1.45-4.554s-1-3.1-1.4-4.68a34.421,34.421,0,0,1-1.182-9.509,21.267,21.267,0,0,1,2.038-8.806c.635-1.28,1.423-2.5,2.921-2.788a14.979,14.979,0,0,1,4.415.275,66.785,66.785,0,0,0,19.7-.795q2.4-.459,4.755-1.1a.3.3,0,0,0-.16-.577h0Z" transform="translate(-443.009 -310.41)"/>
        <path id="Path_30357" data-name="Path 30357" d="M653.956,350.691c1.545-13.438-2.377-29.546-7.217-39.489-1.793-3.668-3.885-7.176-5.8-10.779-2.8-5.271-7.471-15.72-9.961-21.154-2.268-4.982-4.483-4.092-5.468-6.334-2.35-5.366-5.811-3.79-7.665-2.747a3.776,3.776,0,0,0-1.681,4.337c.132.4.34.778.455,1.185a7.512,7.512,0,0,1,.126,2.438c-.275,6.812,2.717,13.285,5.614,19.449l8.51,18c2.764,5.851,6.194,11.828,6.751,18.41.153,1.8-2.3,2.5-3.644,3.124-.394.183-3.535,1.341-3.267,2.007" transform="translate(-462.509 -184.53)"/>
        <path id="Path_30358" data-name="Path 30358" d="M653.323,349.742a65.155,65.155,0,0,0-.679-18.787,80.674,80.674,0,0,0-4.836-17.32c-2.35-5.736-5.712-10.956-8.49-16.484-2.435-4.85-4.673-9.8-6.921-14.736l-1.471-3.243a18.458,18.458,0,0,0-1.9-3.559,9.054,9.054,0,0,0-2.157-2.038,6.105,6.105,0,0,1-1.549-1.233,10.639,10.639,0,0,1-.757-1.46,8.239,8.239,0,0,0-1.144-1.644,4.553,4.553,0,0,0-2.54-1.477,6.444,6.444,0,0,0-4.649,1.307,4.358,4.358,0,0,0-1.7,3.365,5.9,5.9,0,0,0,.536,2.163,5.976,5.976,0,0,1,.214,2.452,28.708,28.708,0,0,0,1.579,10.11,82.225,82.225,0,0,0,3.97,9.468q2.4,5.094,4.819,10.188c1.545,3.277,3.056,6.565,4.653,9.825a97.641,97.641,0,0,1,4.113,9.1,32.823,32.823,0,0,1,1.375,4.8,22.091,22.091,0,0,1,.34,2.452,1.44,1.44,0,0,1-.489,1.25,9.959,9.959,0,0,1-2.856,1.491l-.051.024-.183.075-.54.238c-.455.194-.907.391-1.358.618-.567.292-1.681.849-1.426,1.664.194.632,1.189.36.992-.275.027.088-.085.2.068.054a2.837,2.837,0,0,1,.438-.312,12.016,12.016,0,0,1,1.287-.649c.7-.312,1.413-.6,2.119-.9a5.671,5.671,0,0,0,2.652-1.807,2.326,2.326,0,0,0,.34-1.528,24.241,24.241,0,0,0-.34-2.428,40.569,40.569,0,0,0-3.169-9.22c-1.382-3.026-2.887-6-4.31-9l-4.687-9.923c-1.525-3.23-3.09-6.453-4.547-9.7a48.224,48.224,0,0,1-3.291-9.553,24.653,24.653,0,0,1-.537-4.965c0-.846.1-1.7.037-2.54a4.42,4.42,0,0,0-.214-1.111c-.143-.424-.36-.822-.469-1.257a3.291,3.291,0,0,1,1.175-3.315,6.615,6.615,0,0,1,1.983-.971,3.846,3.846,0,0,1,2.2-.115,4.211,4.211,0,0,1,2.272,1.844,14.663,14.663,0,0,0,1.64,2.717,16.79,16.79,0,0,0,1.762,1.28c1.909,1.4,2.785,3.634,3.736,5.716,2.2,4.839,4.384,9.679,6.69,14.467,1.1,2.282,2.245,4.541,3.464,6.765,1.7,3.056,3.447,6.113,4.962,9.264a75.675,75.675,0,0,1,5.4,16,76.7,76.7,0,0,1,2.014,18.471c-.034,1.474-.122,2.948-.275,4.415-.044.438.628.428.679,0Z" transform="translate(-461.536 -183.582)"/>
        <path id="Path_30359" data-name="Path 30359" d="M635.11,452.256l.791,5.3a.842.842,0,0,0,.1.34.822.822,0,0,0,.588.292,10.415,10.415,0,0,0,8.117-1.983,2.094,2.094,0,0,0,.778-.944,2.345,2.345,0,0,0-.082-1.229,53.155,53.155,0,0,1-1.443-9.872" transform="translate(-475.127 -300.115)" fill="#fff"/>
        <path id="Path_30360" data-name="Path 30360" d="M616.4,406.857c.149-.835.36-6.84,6.816-6.758a10.528,10.528,0,0,1,6.626,2.557,18.021,18.021,0,0,1,1.637,1.579c5.549,6.042-.937,18.7-9.465,18.753-5.342.034-6.327-5.26-6.378-9.584A34.89,34.89,0,0,1,616.4,406.857Z" transform="translate(-462.267 -271.016)" fill="#fff"/>
        <path id="Path_30361" data-name="Path 30361" d="M621.228,421.794a5.172,5.172,0,0,1-3.461-1.148A6.412,6.412,0,0,1,616,417.8a19.541,19.541,0,0,1-.442-8.83c.136-.934.319-1.858.472-2.788l.041-.292c0-.061.041-.312.031-.245a10.564,10.564,0,0,1,.414-1.885,5.465,5.465,0,0,1,3.736-3.736,8.86,8.86,0,0,1,5.193.285,12.372,12.372,0,0,1,4.938,3.471c.377.408.985-.2.608-.608a13.619,13.619,0,0,0-4.564-3.4,10.293,10.293,0,0,0-5.226-.8,6.321,6.321,0,0,0-5.176,3.7,9.589,9.589,0,0,0-.679,2.306c-.047.285-.085.574-.122.863,0,.024-.02.156,0,.075s0,.024,0,.044c-.1.547-.2,1.094-.289,1.644a22.913,22.913,0,0,0,.105,9.913,7.685,7.685,0,0,0,2.038,3.644,6.018,6.018,0,0,0,4.17,1.491.431.431,0,0,0,0-.859Z" transform="translate(-461.48 -270.24)"/>
        <path id="Path_30363" data-name="Path 30363" d="M658.368,434.584a.628.628,0,0,0-.55-.275.931.931,0,0,0-.34.088.873.873,0,0,0-.228.17,1.274,1.274,0,0,0-.177.227,1.058,1.058,0,0,0-.1.17.686.686,0,0,0-.058.156.6.6,0,0,0,0,.278.483.483,0,0,0,.126.221.5.5,0,0,0,.2.115.44.44,0,0,0,.248,0,.492.492,0,0,0,.292-.255.683.683,0,0,0,.078-.2.938.938,0,0,0,.024-.217v-.027a.32.32,0,0,0-.037-.17.34.34,0,0,0-.1-.146.486.486,0,0,0-.214-.126.42.42,0,0,0-.407.109.639.639,0,0,0-.078.1.486.486,0,0,0-.065.234,1.611,1.611,0,0,0,.031.18V435.1a.474.474,0,0,1,0,.1v-.115a.936.936,0,0,1-.024.092l.041-.1-.02.044.367-.211h-.017l.112.017.1.041.085.065.065.085v-.02l.044.1a.069.069,0,0,1,0-.037v.166a.675.675,0,0,1,.061-.177l-.041.1a.863.863,0,0,1,.119-.211l-.061.075a.724.724,0,0,1,.1-.1l-.075.054a.384.384,0,0,1,.1-.058l-.085.034a.633.633,0,0,1,.156-.037h-.085l.068.017-.071-.031.048.024a.3.3,0,0,0,.357-.044.432.432,0,0,0,.078-.132.3.3,0,0,0-.031-.227Z" transform="translate(-489.518 -293.608)"/>
        <path id="Path_30364" data-name="Path 30364" d="M633.515,447.1a2.228,2.228,0,0,1-.34.173l.075-.031a2.509,2.509,0,0,1-.611.17.341.341,0,0,0-.207.156.368.368,0,0,0-.034.268.34.34,0,0,0,.414.244l.011,0a2.753,2.753,0,0,0,1-.442.371.371,0,0,0,.143-.187.306.306,0,0,0-.034-.238.312.312,0,0,0-.421-.112Z" transform="translate(-473.328 -302.031)"/>
        <path id="Path_30365" data-name="Path 30365" d="M641.282,422.116a6.344,6.344,0,0,0-1.229-.679,6.275,6.275,0,0,0-.713-.262c-.116-.034-.231-.061-.34-.085a1.556,1.556,0,0,0-.411-.051.387.387,0,0,0-.1.757,1.658,1.658,0,0,0,.34.071l.3.068a6.385,6.385,0,0,1,.679.18,5.783,5.783,0,0,1,1.175.557.319.319,0,0,0,.428-.112.34.34,0,0,0-.112-.431Z" transform="translate(-477.176 -284.846)"/>
        <path id="Path_30366" data-name="Path 30366" d="M622.793,428.593h-.146a.429.429,0,0,0,.112.017h-.075l-.088-.037-.078-.058-.058-.078h0l-.037-.092v-.153l.037-.1.065-.078.081-.065a.4.4,0,0,0-.146.146.378.378,0,0,0-.054.2v.109a.39.39,0,0,0,.105.177.281.281,0,0,0,.129.085.3.3,0,0,0,.156.034.379.379,0,0,0,.2-.054.429.429,0,0,0,.146-.146c0-.034.031-.065.041-.1h0V428.3a.652.652,0,0,0,0-.115.638.638,0,0,0-.044-.1h0l-.061-.078a.221.221,0,0,0-.048-.037l-.048-.037a.454.454,0,0,0-.211-.058h-.139a.491.491,0,0,0-.088.037c.081-.044-.051.037-.075.058l-.058.075h0s-.024.058-.037.085a.338.338,0,0,0,.081.319.342.342,0,0,0,.146.085.373.373,0,0,0,.173,0Z" transform="translate(-466.709 -289.357)"/>
        <path id="Path_30367" data-name="Path 30367" d="M638.834,430.327H638.7a.46.46,0,0,0,.115.017h-.075l-.092-.037h.017l-.075-.058-.061-.078h0l-.037-.092a.035.035,0,0,1,0,.017v-.1a.02.02,0,0,1,0,.02v-.105a.035.035,0,0,1,0,.017l.041-.1.061-.082h0l.081-.065a.384.384,0,0,0-.143.143.4.4,0,0,0-.058.2l.017.109a.374.374,0,0,0,.1.177.319.319,0,0,0,.129.085.308.308,0,0,0,.156.034.4.4,0,0,0,.2-.054.429.429,0,0,0,.146-.146c0-.034.031-.065.044-.1a.287.287,0,0,0,0-.109.676.676,0,0,0,0-.115.9.9,0,0,0-.044-.1l-.061-.078a.141.141,0,0,0-.044-.037l-.048-.037a.466.466,0,0,0-.214-.058h-.139l-.088.037c.081-.041-.054.041-.075.061a.6.6,0,0,0-.058.075c0,.027-.024.054-.034.085a.373.373,0,0,0,0,.173.333.333,0,0,0,.227.231.387.387,0,0,0,.177,0Z" transform="translate(-477.34 -290.499)"/>
        <path id="Path_30368" data-name="Path 30368" d="M620.268,421.322c.075-.041.153-.078.231-.112l.068-.027.088-.034a3.828,3.828,0,0,1,.472-.156q.119-.031.234-.051c.115-.02.153-.02.061,0h.5a.6.6,0,0,0,.241-.071.34.34,0,0,0,0-.611,1.068,1.068,0,0,0-.679-.041,3.381,3.381,0,0,0-.55.115,3.3,3.3,0,0,0-.533.211,3.014,3.014,0,0,0-.489.34.3.3,0,0,0-.024.4.305.305,0,0,0,.394.078Z" transform="translate(-465.029 -284.279)"/>
        <path id="Path_30369" data-name="Path 30369" d="M626.578,408.471a1.861,1.861,0,0,1,2.323-.727,2.225,2.225,0,0,1,1.229,2.184,2.781,2.781,0,0,1-1.43,2.129c-.234.132-.513.268-.57.526a.832.832,0,0,0,.051.425,3.079,3.079,0,0,0,.53,1.127c.275.312,0,.462.4.3s.258-.445.4-.832c.458-1.257,1.939-2.612,2.4-3.868a17.357,17.357,0,0,0,.581-1.783,8.6,8.6,0,0,0-4.5-9.743,3.727,3.727,0,0,0-3.029-.357.73.73,0,0,1-.251.071.639.639,0,0,1-.391-.238,5.97,5.97,0,0,0-5.434-1.287,14.313,14.313,0,0,0-5.159,2.574,4.785,4.785,0,0,0-1.413,1.311,1.413,1.413,0,0,0-.126,1.447c.367.587,1.206.608,1.892.506a14.5,14.5,0,0,0,5.009-1.715c-.309.217-.656.509-.618.886s.452.6.829.679a3.856,3.856,0,0,0,2.615-.717,19.614,19.614,0,0,1,2.347-1.467,3.94,3.94,0,0,0,.975,4.035,7.019,7.019,0,0,1,1.521,1.484,3.728,3.728,0,0,1-.228,3.036" transform="translate(-459.899 -268.467)"/>
        <path id="Path_30370" data-name="Path 30370" d="M625.97,407.748a1.539,1.539,0,0,1,2.316-.282,1.976,1.976,0,0,1,.241,2.584,3.228,3.228,0,0,1-1.087.92,1,1,0,0,0-.547,1.066,3.69,3.69,0,0,0,.523,1.328c.177.255.272.679.645.679.917,0,.9-1.1,1.229-1.678.475-.842,1.134-1.566,1.657-2.377a9.346,9.346,0,0,0,1.131-2.934,9.1,9.1,0,0,0-2.5-8.507c-1.311-1.273-3.423-2.635-5.335-2.085a1.785,1.785,0,0,1-.268.092c-.312.024.048.1-.207-.048a5.732,5.732,0,0,1-.465-.4,5.356,5.356,0,0,0-1.291-.727,6.631,6.631,0,0,0-2.717-.441,11.627,11.627,0,0,0-5.773,2.207,6.72,6.72,0,0,0-2.54,2.218,1.61,1.61,0,0,0,.8,2.377,5.78,5.78,0,0,0,3.2-.285,15.1,15.1,0,0,0,3.467-1.437l-.425-.73c-.516.377-1.056.941-.723,1.623a1.787,1.787,0,0,0,1.864.734c1.742-.177,2.927-1.566,4.445-2.272l-.587-.452a4.344,4.344,0,0,0,.9,4.245c.506.554,1.27.907,1.637,1.579a3.341,3.341,0,0,1-.268,2.717c-.187.475.594.679.768.211a5.36,5.36,0,0,0,.452-2.537,2.891,2.891,0,0,0-1.267-1.878,4.116,4.116,0,0,1-1.406-1.776,3.616,3.616,0,0,1-.044-2.377c.115-.36-.3-.581-.588-.448-1.019.462-1.864,1.236-2.866,1.746a3.167,3.167,0,0,1-1.606.4c-.194,0-.618-.058-.679-.289s.275-.424.407-.52a.422.422,0,1,0-.424-.73,14.44,14.44,0,0,1-4.391,1.566,2.506,2.506,0,0,1-1.739-.054c-.642-.448.027-1.331.414-1.7a13.023,13.023,0,0,1,1.776-1.287,16.492,16.492,0,0,1,1.946-1.114,7.975,7.975,0,0,1,4.1-.866,5.272,5.272,0,0,1,1.834.479,4.516,4.516,0,0,1,.8.482,6.927,6.927,0,0,0,.7.6.981.981,0,0,0,.89-.027,2.511,2.511,0,0,1,1.155-.1,5.418,5.418,0,0,1,1.973.774,8.221,8.221,0,0,1,3.977,7.054,8.7,8.7,0,0,1-1.358,4.676c-.421.628-.907,1.209-1.314,1.847a5.155,5.155,0,0,0-.469.9c-.048.122-.1.7-.255.7l.292.119c.136.122.082.132.034,0a1.292,1.292,0,0,0-.194-.34,2.739,2.739,0,0,1-.421-.852c-.122-.377-.02-.458.289-.642a3.906,3.906,0,0,0,.594-.431,2.965,2.965,0,0,0,.968-2.741,2.4,2.4,0,0,0-1.892-1.936,2.2,2.2,0,0,0-2.238,1.039.289.289,0,0,0,.5.289Z" transform="translate(-459.042 -267.602)"/>
        <path id="Path_30371" data-name="Path 30371" d="M634.154,451.313a18.712,18.712,0,0,0,.34,3.1l.211,1.494a2.682,2.682,0,0,0,.34,1.358,1.391,1.391,0,0,0,.927.438,10.717,10.717,0,0,0,1.358.143,11.164,11.164,0,0,0,2.6-.221,10.529,10.529,0,0,0,4.6-2.17,2.078,2.078,0,0,0,.74-2.184c-.2-1.019-.472-2.014-.679-3.029a41.135,41.135,0,0,1-.788-7.033c0-.642-1.043-.625-.988,0,.16,1.81.34,3.617.6,5.413.133.89.292,1.78.472,2.663.088.428.18.852.278,1.28a4.687,4.687,0,0,1,.265,1.443c-.071.7-1.046,1.2-1.583,1.521a10.079,10.079,0,0,1-2.1.944,9.851,9.851,0,0,1-4.554.34c-.2-.034-.394-.034-.489-.221a2.617,2.617,0,0,1-.112-.7l-.248-1.569a18.95,18.95,0,0,0-.581-3.118.319.319,0,0,0-.625.085Z" transform="translate(-474.487 -299.171)"/>
        <path id="Path_30372" data-name="Path 30372" d="M637.027,462.225a5.23,5.23,0,0,1-2.221,1.063,9.858,9.858,0,0,1-1.226.149c-.211.017-.421.041-.632.054a3.231,3.231,0,0,0-.744.078c-.37.122-.445.751,0,.832a5.051,5.051,0,0,0,1.494-.092,9.45,9.45,0,0,0,1.4-.323,6,6,0,0,0,2.357-1.338c.289-.265-.129-.679-.425-.425Z" transform="translate(-473.006 -311.992)"/>
        <path id="Path_30373" data-name="Path 30373" d="M392.8,21.242,390.8,29.868l-5.434,23.473-7.984,34.582L367.6,130.255l-10.715,46.366L346.107,223.27,336.02,266.9,327.5,303.777,321.387,330.2c-.968,4.184-1.99,8.361-2.9,12.565-.037.177-.082.357-.122.533-.5,2.156,2.819,3.077,3.318.913l1.993-8.626,5.434-23.474,7.991-34.589,9.781-42.328,10.721-46.37,10.779-46.645,10.086-43.639,8.521-36.868L393.1,35.251c.968-4.184,1.99-8.361,2.9-12.565.037-.18.082-.357.122-.533.5-2.156-2.819-3.077-3.318-.917Z" transform="translate(-265.914 -20.004)"/>
        <path id="Path_30374" data-name="Path 30374" d="M523.987,21.242l-1.98,8.626-5.434,23.473-8,34.582-9.784,42.332-10.715,46.366L477.294,223.27,467.212,266.9l-8.521,36.881L452.578,330.2c-.964,4.184-1.987,8.361-2.9,12.565-.041.177-.082.357-.126.533-.5,2.156,2.822,3.077,3.321.913l1.993-8.626,5.434-23.474,7.988-34.589,9.781-42.328,10.718-46.37,10.779-46.645,10.086-43.639,8.521-36.868,6.113-26.425c.968-4.184,1.99-8.361,2.9-12.565.041-.18.085-.357.126-.533.5-2.156-2.819-3.077-3.318-.917Z" transform="translate(-352.553 -20.004)"/>
        <path id="Path_30375" data-name="Path 30375" d="M478.359,297.971c2.849.136,5.705.109,8.555.224s5.7.309,8.555.394c5.7.17,11.407.126,17.106.078l4.754-.041a22.677,22.677,0,0,0,5.036-.265,1.119,1.119,0,0,0,0-2.143,19.3,19.3,0,0,0-4.361-.262l-4.327-.024q-4.279-.037-8.555-.034t-8.555.085c-2.853.048-5.7.251-8.555.367-3.216.132-6.452.116-9.655.272a.679.679,0,1,0,0,1.358Z" transform="translate(-371.161 -202.204)"/>
        <path id="Path_30376" data-name="Path 30376" d="M333.856,931.124c2.849.136,5.7.109,8.551.224s5.7.309,8.555.394c5.7.17,11.407.126,17.109.078l4.754-.041a22.728,22.728,0,0,0,5.04-.265,1.12,1.12,0,0,0,0-2.143,19.32,19.32,0,0,0-4.361-.261l-4.32-.037c-2.853-.02-5.7-.037-8.555-.034s-5.7.034-8.555.085-5.7.251-8.555.367c-3.216.133-6.452.115-9.652.272a.679.679,0,1,0,0,1.358Z" transform="translate(-275.741 -620.326)"/>
        <path id="Path_30377" data-name="Path 30377" d="M362.749,804.495c2.849.136,5.705.109,8.555.224s5.7.312,8.555.394c5.7.17,11.407.126,17.106.078l4.754-.037a22.684,22.684,0,0,0,5.036-.268,1.12,1.12,0,0,0,0-2.143,19.3,19.3,0,0,0-4.361-.261l-4.32-.034q-4.276-.034-8.551-.037t-8.555.085c-2.853.047-5.7.251-8.555.367-3.216.132-6.453.119-9.655.272a.679.679,0,1,0,0,1.358Z" transform="translate(-294.82 -536.701)"/>
        <path id="Path_30378" data-name="Path 30378" d="M377.216,741.185c2.849.136,5.7.109,8.551.224s5.705.309,8.555.394c5.7.17,11.407.122,17.109.078l4.754-.041a22.714,22.714,0,0,0,5.04-.265,1.12,1.12,0,0,0,0-2.143,19.3,19.3,0,0,0-4.361-.262l-4.32-.037q-4.279-.037-8.555-.034t-8.555.082c-2.849.051-5.7.251-8.551.37-3.219.132-6.452.115-9.655.272a.679.679,0,0,0,0,1.358Z" transform="translate(-304.376 -494.891)"/>
        <path id="Path_30379" data-name="Path 30379" d="M391.7,677.872c2.849.136,5.7.109,8.555.228s5.7.309,8.555.394c5.7.166,11.407.122,17.106.075l4.754-.037a22.5,22.5,0,0,0,5.036-.268,1.12,1.12,0,0,0,0-2.143,19.5,19.5,0,0,0-4.361-.261l-4.32-.034q-4.272-.034-8.551-.034t-8.555.082c-2.853.051-5.705.251-8.555.367-3.216.132-6.453.119-9.655.272a.679.679,0,1,0,0,1.358Z" transform="translate(-313.938 -453.082)"/>
        <path id="Path_30380" data-name="Path 30380" d="M406.109,614.555c2.849.136,5.705.109,8.555.224s5.7.309,8.555.394c5.7.17,11.407.126,17.106.078l4.754-.041a22.717,22.717,0,0,0,5.04-.265,1.12,1.12,0,0,0,0-2.143,19.352,19.352,0,0,0-4.364-.262l-4.316-.037q-4.279-.037-8.555-.034t-8.555.085c-2.853.048-5.7.251-8.555.367-3.216.133-6.452.115-9.655.272a.679.679,0,1,0,0,1.358Z" transform="translate(-323.454 -411.265)"/>
        <path id="Path_30381" data-name="Path 30381" d="M420.576,551.242c2.849.139,5.7.109,8.555.228s5.7.309,8.551.394c5.7.17,11.407.122,17.109.075l4.754-.037a22.523,22.523,0,0,0,5.04-.268,1.12,1.12,0,0,0,0-2.143,19.507,19.507,0,0,0-4.361-.261l-4.32-.034q-4.279-.034-8.555-.034t-8.551.082c-2.853.051-5.705.251-8.555.37-3.219.129-6.452.116-9.655.268a.679.679,0,0,0,0,1.358Z" transform="translate(-333.01 -369.456)"/>
        <path id="Path_30382" data-name="Path 30382" d="M435.019,487.945c2.849.136,5.705.109,8.555.224s5.7.312,8.555.394c5.7.17,11.407.126,17.106.078l4.755-.037a22.7,22.7,0,0,0,5.036-.268,1.12,1.12,0,0,0,0-2.143,19.307,19.307,0,0,0-4.361-.261l-4.32-.034q-4.275-.034-8.551-.037t-8.555.085c-2.853.048-5.705.251-8.555.367-3.216.132-6.452.119-9.655.272a.679.679,0,1,0,0,1.358Z" transform="translate(-342.546 -327.653)"/>
        <path id="Path_30383" data-name="Path 30383" d="M449.486,424.615c2.849.136,5.7.109,8.551.224s5.7.309,8.555.394c5.7.17,11.407.122,17.109.078l4.754-.041a22.72,22.72,0,0,0,5.04-.265,1.122,1.122,0,0,0,0-2.146,20.347,20.347,0,0,0-4.361-.258l-4.32-.037q-4.279-.037-8.555-.034t-8.555.082c-2.853.051-5.7.251-8.551.37-3.22.132-6.453.116-9.655.268a.679.679,0,1,0,0,1.358Z" transform="translate(-352.102 -285.83)"/>
        <path id="Path_30384" data-name="Path 30384" d="M463.929,361.3c2.849.136,5.7.109,8.555.228s5.7.309,8.551.394c5.7.166,11.411.122,17.109.075l4.754-.037a22.7,22.7,0,0,0,5.036-.268,1.12,1.12,0,0,0,0-2.143,19.5,19.5,0,0,0-4.361-.261l-4.32-.034q-4.276-.034-8.555-.034t-8.551.082c-2.853.051-5.705.251-8.555.367-3.216.132-6.453.119-9.655.272a.679.679,0,1,0,0,1.358Z" transform="translate(-361.638 -244.021)"/>
        <path id="Path_30385" data-name="Path 30385" d="M475.4,296.074a27.465,27.465,0,0,1,.475-6.351,7.079,7.079,0,0,1,1.5-3.532c1.257-1.358,3.25-1.7,5.094-1.932a2.744,2.744,0,0,1,1.606.109,2.3,2.3,0,0,0,.723.34,1.7,1.7,0,0,0,.642-.129,2.578,2.578,0,0,1,2.815,1.06c.211.34.367.734.72.9.262.122.577.082.835.2.635.3.469,1.318-.078,1.752a8.992,8.992,0,0,1-1.922.825c-.635.3-1.209,1.019-.917,1.654a3.6,3.6,0,0,1,1.375-.513,1.233,1.233,0,0,1,1.236.628c.272.632-.231,1.314-.713,1.8a33.963,33.963,0,0,1-8.449,6.29" transform="translate(-369.643 -194.469)" fill="#fff"/>
        <path id="Path_30386" data-name="Path 30386" d="M474.959,295.066a33.369,33.369,0,0,1,.818-6.891,5.938,5.938,0,0,1,1.284-2.632,5.182,5.182,0,0,1,2.337-1.3,14.058,14.058,0,0,1,2.717-.5,2.128,2.128,0,0,1,.734.02,3.314,3.314,0,0,1,.659.34,1.911,1.911,0,0,0,1.43-.024,2.037,2.037,0,0,1,2.085.839,3.184,3.184,0,0,0,.771,1,1.475,1.475,0,0,0,.621.234c.173.031.394,0,.482.18.149.275-.16.679-.36.812a6.907,6.907,0,0,1-1.453.581c-.954.384-1.739,1.314-1.046,2.326a.622.622,0,0,0,.954.122,1.087,1.087,0,0,1,1.019-.078c.547.268.1.9-.173,1.209a23.088,23.088,0,0,1-2.6,2.418,32.5,32.5,0,0,1-2.87,2.136,13.674,13.674,0,0,1-1.487.849,15.277,15.277,0,0,0-1.572.995c-.482.319-.183,1.246.421,1q.557-.224,1.1-.458a4.6,4.6,0,0,0,.886-.55c.608-.431,1.229-.842,1.841-1.27a35.533,35.533,0,0,0,3.532-2.843,17.961,17.961,0,0,0,1.576-1.559,2.281,2.281,0,0,0,.679-1.881,1.623,1.623,0,0,0-1.27-1.185,3.152,3.152,0,0,0-1.651.2l.747.428a4.916,4.916,0,0,1-.088-.584c0-.126.085-.132-.017-.037a1.1,1.1,0,0,1,.275-.173c.475-.228,1.019-.323,1.481-.554a1.939,1.939,0,0,0,1.155-2.129,1.253,1.253,0,0,0-.764-.883,6.694,6.694,0,0,1-.75-.18c-.207-.109-.3-.377-.418-.567a3.156,3.156,0,0,0-2.4-1.508,4.372,4.372,0,0,0-1.341.173c-.292.054-.441-.119-.7-.248a2.274,2.274,0,0,0-.785-.228,6,6,0,0,0-1.5.1c-.564.078-1.127.163-1.7.282a7.026,7.026,0,0,0-2.717,1.128,5.359,5.359,0,0,0-1.854,2.639,17.379,17.379,0,0,0-.7,3.844,19.951,19.951,0,0,0-.02,4.415.34.34,0,0,0,.645,0Z" transform="translate(-368.875 -193.461)"/>
        <path id="Path_30387" data-name="Path 30387" d="M450.66,325.616l3.59-8.887a3.741,3.741,0,0,1,1.7-2.275,8,8,0,0,0,1.094-.34,3.512,3.512,0,0,0,1-1.182,4.629,4.629,0,0,1,5.26-1.766,5,5,0,0,1,3.056,4.829,1.4,1.4,0,0,1,1.433.93,4.506,4.506,0,0,1,.248,1.9,56.51,56.51,0,0,1-4,19.979c-.961,2.394-2.55,5.053-4.972,5.118" transform="translate(-353.317 -212.131)" fill="#fff"/>
        <path id="Path_30388" data-name="Path 30388" d="M450.3,324.731q1.192-2.883,2.377-5.773.615-1.477,1.236-2.955a4.374,4.374,0,0,1,1.189-1.922,3.657,3.657,0,0,1,1.124-.391,2.128,2.128,0,0,0,1.019-.754,7.53,7.53,0,0,1,1.46-1.7,4.011,4.011,0,0,1,4.1-.455,4.622,4.622,0,0,1,2.377,4.228.486.486,0,0,0,.482.489h0c1.134-.149,1.2,1.43,1.192,2.19,0,1.056-.068,2.112-.149,3.169a55.339,55.339,0,0,1-.883,6.469,58.918,58.918,0,0,1-1.569,6.15,33.175,33.175,0,0,1-2.153,5.617c-.764,1.447-1.96,3.172-3.736,3.3a.525.525,0,0,0,0,1.049c1.905-.027,3.284-1.386,4.248-2.907a26.208,26.208,0,0,0,2.469-5.855,56.221,56.221,0,0,0,2.673-14.148,20.277,20.277,0,0,0,.048-3.878c-.143-1.056-.883-2.3-2.122-2.136l.489.486a5.655,5.655,0,0,0-2.038-4.5,4.755,4.755,0,0,0-4.636-.757,5.263,5.263,0,0,0-2.038,1.335,7,7,0,0,0-.72.951,2.774,2.774,0,0,1-.4.526,1.582,1.582,0,0,1-.771.34c-1.915.472-2.4,2.69-3.029,4.3q-1.43,3.678-2.88,7.356c-.156.4.479.564.638.177Z" transform="translate(-352.642 -211.158)"/>
        <path id="Path_30389" data-name="Path 30389" d="M492.846,234.672c2.849.139,5.7.109,8.555.228s5.7.309,8.551.394c5.7.17,11.407.122,17.109.075l4.754-.037a22.517,22.517,0,0,0,5.04-.268,1.12,1.12,0,0,0,0-2.143,19.5,19.5,0,0,0-4.361-.262l-4.32-.034q-4.279-.034-8.555-.034t-8.555.082c-2.849.051-5.7.251-8.551.37-3.219.129-6.453.115-9.655.268a.679.679,0,0,0,0,1.358Z" transform="translate(-380.737 -160.395)"/>
        <path id="Path_30390" data-name="Path 30390" d="M507.289,171.355c2.849.136,5.705.109,8.555.224s5.7.309,8.555.394c5.7.17,11.407.126,17.106.078l4.754-.041a22.7,22.7,0,0,0,5.036-.265,1.12,1.12,0,0,0,0-2.143,19.3,19.3,0,0,0-4.361-.262l-4.32-.034q-4.272-.034-8.551-.037t-8.555.085c-2.853.048-5.705.251-8.555.367-3.216.132-6.452.119-9.655.272a.679.679,0,0,0,0,1.358Z" transform="translate(-390.273 -118.578)"/>
        <path id="Path_30391" data-name="Path 30391" d="M521.7,108.045c2.846.136,5.7.105,8.551.224s5.7.309,8.555.394c5.7.17,11.407.122,17.109.078l4.754-.041a22.72,22.72,0,0,0,5.04-.265,1.122,1.122,0,0,0,0-2.146,19.322,19.322,0,0,0-4.361-.258L557,105.993q-4.279-.037-8.555-.034t-8.555.082c-2.853.051-5.7.251-8.555.37-3.216.132-6.453.115-9.652.268a.679.679,0,1,0,0,1.358Z" transform="translate(-399.776 -76.768)"/>
        <path id="Path_30392" data-name="Path 30392" d="M362.248,259.1c2.842,1.756,3.495,6.035,6.568,7.359a2.317,2.317,0,0,1,.812.452c.438.458.272,1.1-.088,1.671-.571.914.16,2.038.608,2.839a13.168,13.168,0,0,1,1.929,4.924,3.49,3.49,0,0,1-1.749,3.4c-1.209.767-2.873.876-3.936,1.905a3.23,3.23,0,0,0-.6,3.056c.2,1.06.34,1.6.56,2.662a1.992,1.992,0,0,1,0,1.178,1.867,1.867,0,0,1-1.175.893A14.48,14.48,0,0,1,354,289a1.47,1.47,0,0,1-.785-.645,1.673,1.673,0,0,1,.027-1.019,19.7,19.7,0,0,0-.384-9.414c-1.338-4.819-6.34-9.332-5.03-14.712a6.509,6.509,0,0,1,2.007-3.3,11.247,11.247,0,0,1,6-2.615c1.943-.251,4.676-.156,5.974,1.569" transform="translate(-285.264 -176.637)" fill="#fff"/>
        <path id="Path_30393" data-name="Path 30393" d="M361.276,258.579c2.126,1.358,2.914,4,4.486,5.872a6.419,6.419,0,0,0,1.294,1.189,4.565,4.565,0,0,0,.788.435c.34.156.812.292.771.761a3.543,3.543,0,0,1-.424.992,2.036,2.036,0,0,0-.1,1.1,6.585,6.585,0,0,0,.91,2.061,11.225,11.225,0,0,1,1.807,4.8,3.321,3.321,0,0,1-2.248,3.111c-1.291.547-2.883.822-3.709,2.106s-.36,2.89-.071,4.242l.234,1.073c.088.4.3.961.061,1.358a1.6,1.6,0,0,1-.812.526,12.454,12.454,0,0,1-1.246.4,14.126,14.126,0,0,1-4.918.441,12.869,12.869,0,0,1-4.816-1.318.708.708,0,0,1-.418-.92c.088-.472.19-.91.255-1.358a18.668,18.668,0,0,0,.2-2.612,19.391,19.391,0,0,0-2.211-9.169c-1.314-2.5-3.036-4.89-3.658-7.689a7.3,7.3,0,0,1,.248-4.2,7.04,7.04,0,0,1,3.162-3.416,10.509,10.509,0,0,1,8.385-1.09,3.42,3.42,0,0,1,1.521,1.066c.248.3.785-.105.55-.424-1.759-2.377-5.352-2.18-7.909-1.518-3.24.839-6.361,3.056-6.914,6.548-.482,3.039.866,5.865,2.3,8.453.74,1.341,1.528,2.663,2.156,4.058a17.013,17.013,0,0,1,1.291,4.9,18.25,18.25,0,0,1-.177,5.773c-.173.849-.34,1.671.452,2.245a8.319,8.319,0,0,0,2.326,1,14.94,14.94,0,0,0,5.294.662,15.3,15.3,0,0,0,2.571-.36,9.149,9.149,0,0,0,2.462-.842,1.783,1.783,0,0,0,.917-1.909c-.119-.849-.357-1.7-.526-2.523a5.146,5.146,0,0,1-.136-2.326,2.575,2.575,0,0,1,1.606-1.562c1.433-.621,2.931-.91,3.939-2.221a4.729,4.729,0,0,0,.408-4.479A15.9,15.9,0,0,0,370.2,271.2a11.59,11.59,0,0,1-1.124-2.177,1.291,1.291,0,0,1,.139-1.1,2.261,2.261,0,0,0,.34-1.175c-.037-.92-.781-1.2-1.5-1.538a7.182,7.182,0,0,1-2.717-2.693,27.331,27.331,0,0,0-2.292-3.274,6.578,6.578,0,0,0-1.436-1.229c-.367-.224-.679.34-.34.57Z" transform="translate(-284.462 -175.829)"/>
        <path id="Path_30394" data-name="Path 30394" d="M397.471,281.88a.513.513,0,0,0-.238-.3.418.418,0,0,0-.255-.058,1.013,1.013,0,0,0-.136.02.9.9,0,0,0-.132.054.655.655,0,0,0-.258.251.8.8,0,0,0-.112.36.832.832,0,0,0,.02.183.338.338,0,0,0,.017.078.735.735,0,0,0,.19.306.689.689,0,0,0,.143.105.681.681,0,0,0,.292.078.624.624,0,0,0,.34-.1.657.657,0,0,0,.292-.377.474.474,0,0,0,.024-.153.51.51,0,0,0-.139-.34.6.6,0,0,0-.234-.143.444.444,0,0,0-.231,0,.338.338,0,0,0-.149.078.342.342,0,0,0-.112.122.457.457,0,0,0-.058.221.041.041,0,0,1,0,.02l.017-.119v.017l.048-.109a.429.429,0,0,0-.058.18v0l.048-.112a.293.293,0,0,1-.027.041l.075-.092-.044.041.1-.075-.044.027.109-.048h-.044l.122-.017h-.037l.122.017h-.054l.109.044-.048-.027.092.071a.252.252,0,0,1-.041-.044l.068.092a.42.42,0,0,1-.037-.068l.044.109a.406.406,0,0,1-.02-.085v.119a.547.547,0,0,1,0-.129v.115a.606.606,0,0,1,.024-.085l-.041.1a.226.226,0,0,1,.031-.054l-.065.085.044-.044-.085.061.054-.027-.1.041h.044a.567.567,0,0,0,.126-.048l-.092.037a.091.091,0,0,1,.041,0h-.132a.34.34,0,0,0,.408-.254.334.334,0,0,0,0-.154Z" transform="translate(-317.445 -192.711)"/>
        <path id="Path_30395" data-name="Path 30395" d="M393.4,275.17a.5.5,0,0,0-.143-.34.682.682,0,0,0-.289-.149,1.809,1.809,0,0,0-.384-.061l.156.02a1.051,1.051,0,0,0-.679.034,3.688,3.688,0,0,0-.533.224l.18-.075h-.051l.6,1.426c.122-.068.234-.153.34-.224a3.852,3.852,0,0,1,.377-.183l-.19.081.187-.075-.611-1.45a6.4,6.4,0,0,0-.751.4,3.975,3.975,0,0,0-.34.241l-.163.119a1.487,1.487,0,0,0-.312.251.784.784,0,0,0-.207.34l-.027.211a.77.77,0,0,0,.312.628.785.785,0,0,0,.591.156.619.619,0,0,0,.3-.1.819.819,0,0,0,.285-.285l.071-.1a.723.723,0,0,0-.428-1.053l-.119-.02.19,1.457a2.387,2.387,0,0,0,.34-.262c.061-.051.122-.1.187-.149l-.16.122a5.872,5.872,0,0,1,1.063-.608.782.782,0,0,0,.363-.472.816.816,0,0,0-.041-.516.755.755,0,0,0-.323-.38.774.774,0,0,0-.611-.078,4.734,4.734,0,0,0-.659.3,2.957,2.957,0,0,0-.591.408.779.779,0,0,0-.228.55.74.74,0,0,0,.289.659.781.781,0,0,0,1.1-.143.8.8,0,0,0,.053-.077v-.02l-.122.156a3.794,3.794,0,0,1,.411-.363l-.136.1.112-.078a.853.853,0,0,0,.228-.228l.031-.054-.088.119.017-.017-.115.092a.889.889,0,0,1,.2-.115l-.115.048a1.173,1.173,0,0,0,.2-.088.445.445,0,0,0,.217-.377Z" transform="translate(-313.628 -187.926)"/>
        <path id="Path_30396" data-name="Path 30396" d="M371.135,295.5h0a.729.729,0,0,1,.149.037l-.078-.031a.651.651,0,0,1,.156.092l-.068-.054a.789.789,0,0,1,.156.163l-.054-.071a1.49,1.49,0,0,1,.16.251l-.037-.088a.475.475,0,0,1,0,.054v-.1a.163.163,0,0,1,0,.041v-.1a.047.047,0,0,1,0,.024l.037-.088v.017l.058-.075a.08.08,0,0,1-.024.024l.075-.058h-.017l.085-.034h.156l.088.037.075.058h0l.058.075.037.088v.146c0-.008,0-.016,0-.024l-.037.088v-.027l-.058.075h.017l-.075.058.031-.02-.088.037.061-.017a.435.435,0,0,0,.194-.105.367.367,0,0,0-.007-.519.357.357,0,0,0-.068-.052.427.427,0,0,0-.34-.037.537.537,0,0,0-.163.068.47.47,0,0,0-.18.217.479.479,0,0,0-.031.292.434.434,0,0,0,.418.34.465.465,0,0,0,.4-.241.537.537,0,0,0-.02-.506,1.255,1.255,0,0,0-.17-.231,1.187,1.187,0,0,0-.377-.3.89.89,0,0,0-.659-.054.3.3,0,0,0-.215.37v0a.309.309,0,0,0,.374.214Z" transform="translate(-300.563 -201.56)"/>
        <path id="Path_30397" data-name="Path 30397" d="M404.463,298.823l.088-.146.34-.088.156.092a.374.374,0,0,0-.272-.115c-.143.017-.132.02.034,0h0c-.115-.054-.231-.1-.34-.149-.048-.02-.051-.02,0,0l-.071-.031-.139-.061L404,298.2q-.272-.132-.53-.285a2.8,2.8,0,0,0-.628-.37.571.571,0,0,0-.638.261.581.581,0,0,0,.088.679,1.2,1.2,0,0,0,.455.255l.143.058c.061.02,0,0-.02,0,.051.027.109.048.163.071.194.081.394.156.594.224s.4.119.6.166a1.019,1.019,0,0,0,.744,0,.383.383,0,0,0,.173-.424c0-.044.02.156,0,0a.4.4,0,0,0-.048-.139.339.339,0,0,0-.611.078Z" transform="translate(-321.268 -203.276)"/>
        <g id="Group_34820" data-name="Group 34820" transform="translate(0 152.627)">
          <path id="Path_30398" data-name="Path 30398" d="M398.065,475.84c4.5,5.692,6.486,12.925,8.151,19.993,4.938,21.154,7.852,43.371,2.961,64.545-1.263,5.464-3.033,10.8-4.8,16.121l-6.385,19.239c-1.083,3.267-1.943,7.441.679,9.665,1.226,1.039,3.253,2.455,2.167,3.637a2.253,2.253,0,0,1-1.674.5l-12.012.251a5.372,5.372,0,0,1-2.859-.469c-1.538-.9-1.783-2.978-1.841-4.755A304.167,304.167,0,0,1,387.6,537.92a11.439,11.439,0,0,0,.3-3.878,11.221,11.221,0,0,0-1.189-3.2,243.351,243.351,0,0,1-13.635-34.613c-1.871-6.076-3.512-12.565-1.956-18.726" transform="translate(-300.376 -473.663)" fill="#001cd9"/>
          <path id="Path_30399" data-name="Path 30399" d="M396.763,475.3a36.556,36.556,0,0,1,5.729,11.727c1.341,4.265,2.282,8.667,3.206,13.037a190.714,190.714,0,0,1,4.113,29.029,109.965,109.965,0,0,1-1.956,28.832,139.586,139.586,0,0,1-3.99,14.175c-1.549,4.755-3.135,9.468-4.7,14.2l-2.377,7.217a26.782,26.782,0,0,0-1.426,5.617,7.3,7.3,0,0,0,.934,4.86,8.986,8.986,0,0,0,1.783,1.752c.435.367,1.545,1.148,1.447,1.824-.075.506-.8.56-1.185.584-.645.044-1.294.047-1.939.068-1.243.041-2.489.061-3.736.092-2.472.061-4.982.255-7.454.156a2.819,2.819,0,0,1-2.584-1.358,6.34,6.34,0,0,1-.645-2.717c-.16-2.377-.149-4.8-.177-7.2-.112-9.9.261-19.8,1.114-29.661s2.2-19.762,4.028-29.529a23.977,23.977,0,0,0,.513-3.478,7.9,7.9,0,0,0-.679-3.372c-.917-2.184-2.038-4.3-3-6.452-1.98-4.378-3.861-8.8-5.6-13.282s-3.338-9.03-4.805-13.615-2.941-9.169-3.284-13.954a22.582,22.582,0,0,1,.547-7c.173-.717-.931-1.019-1.107-.306-1.161,4.731-.554,9.618.611,14.287,1.192,4.782,2.8,9.482,4.442,14.124s3.4,9.186,5.3,13.7c.954,2.262,1.939,4.513,2.972,6.741q.768,1.664,1.566,3.321a35.974,35.974,0,0,1,1.572,3.365c.9,2.489-.024,5.22-.472,7.719s-.863,4.985-1.246,7.471q-1.151,7.509-1.936,15.065a304.5,304.5,0,0,0-1.617,30.425q0,3.79.075,7.587c.044,2.078-.149,4.415.537,6.425a4.025,4.025,0,0,0,4.215,2.717c2.591,0,5.189-.092,7.777-.136,1.291-.02,2.581-.044,3.872-.058.941,0,2.116.126,2.883-.533,1.521-1.3-.085-2.988-1.158-3.9a6.77,6.77,0,0,1-1.851-1.956,5.574,5.574,0,0,1-.554-2.5,16.748,16.748,0,0,1,1.073-5.461q2.448-7.407,4.917-14.807c1.593-4.792,3.236-9.57,4.649-14.42a105.208,105.208,0,0,0,4.13-29.4,160.533,160.533,0,0,0-3.056-29.685c-.893-4.754-1.946-9.509-3.145-14.209a56.909,56.909,0,0,0-4.415-12.389,33.42,33.42,0,0,0-3.4-5.284c-.289-.363-.784.146-.506.506Z" transform="translate(-299.325 -472.872)" fill="#001cd9"/>
          <path id="Path_30400" data-name="Path 30400" d="M223.905,476.75c-6.32,11.414-7.913,24.747-9.662,37.676a47.917,47.917,0,0,1-2.408,11.013c-3.131,8.049-10.161,13.784-16.1,20.037-9.645,10.164-16.98,22.516-27.705,31.536-1,.842-2.106,1.78-2.289,3.077a5.016,5.016,0,0,0,1.389,3.528A70.116,70.116,0,0,0,179.315,596.2a4.871,4.871,0,0,0,2.839,1.375c2.109.044,3.4-2.428,3.416-4.537s-.615-4.262-.051-6.3c.737-2.642,3.291-4.3,5.637-5.719a169.429,169.429,0,0,0,17.561-11.781,100.951,100.951,0,0,0,36.7-98.095" transform="translate(-165.139 -470.566)" fill="#001cd9"/>
          <path id="Path_30401" data-name="Path 30401" d="M222.49,475.438c-4.965,8.83-7.094,18.828-8.6,28.761-.774,5.142-1.209,10.385-2.343,15.462a28.4,28.4,0,0,1-2.557,7.132,35.426,35.426,0,0,1-3.868,5.726c-2.951,3.61-6.378,6.792-9.638,10.1a143.618,143.618,0,0,0-9.631,11.078c-6.113,7.648-12,15.527-19.507,21.891a6.993,6.993,0,0,0-2.038,2.377,3.735,3.735,0,0,0,.136,3.162,17.123,17.123,0,0,0,2.109,3.056c.751.975,1.606,1.983,2.449,2.941a71.666,71.666,0,0,0,5.434,5.539q1.416,1.287,2.9,2.5a8.15,8.15,0,0,0,2.853,1.776c1.943.53,3.559-.791,4.3-2.5.981-2.269.245-4.6.258-6.965.017-2.455,1.43-4.218,3.342-5.607,2-1.45,4.2-2.639,6.289-3.946,8.585-5.359,16.719-11.305,23.742-18.627a103.107,103.107,0,0,0,16.454-22.635,100.57,100.57,0,0,0,9.991-27.878,104.33,104.33,0,0,0,1.423-31.437c-.272-2.5-.628-5.006-1.1-7.471-.146-.781-1.338-.448-1.192.34a101.251,101.251,0,0,1,1.09,30.9,99.313,99.313,0,0,1-8.076,28.938A101.5,101.5,0,0,1,222,553.431a104.5,104.5,0,0,1-21.212,18.987c-2.194,1.5-4.415,2.938-6.68,4.344-2.089,1.3-4.265,2.5-6.289,3.905a9.481,9.481,0,0,0-3.9,4.561c-.815,2.442.258,4.917-.115,7.38-.258,1.722-1.549,3.9-3.586,3.107a11.559,11.559,0,0,1-3-2.177c-.91-.771-1.871-1.623-2.771-2.472a70.521,70.521,0,0,1-5.21-5.454q-1.233-1.443-2.377-2.944c-.727-.947-1.7-2.092-1.671-3.359a3.933,3.933,0,0,1,1.7-2.608c.9-.784,1.813-1.552,2.693-2.377,1.735-1.6,3.4-3.291,4.985-5.033,3.25-3.556,6.242-7.332,9.224-11.112s5.926-7.529,9.112-11.105c3.094-3.471,6.486-6.643,9.675-10.018a42.5,42.5,0,0,0,7.872-10.8c2.177-4.629,2.751-9.716,3.416-14.729,1.3-9.821,2.642-19.772,6.181-29.091a55.485,55.485,0,0,1,3.056-6.646.347.347,0,0,0-.6-.34Z" transform="translate(-164.025 -469.43)" fill="#001cd9"/>
        </g>
        <path id="Path_30402" data-name="Path 30402" d="M353.732,264.323a2.6,2.6,0,0,0-2.292-.567,1.909,1.909,0,0,0-1.413,1.786,2.21,2.21,0,0,0,.985,1.664,6.641,6.641,0,0,0,1.824.818,3.634,3.634,0,0,1-1,3.495,3.328,3.328,0,0,1-3.546.611,5.951,5.951,0,0,1-1.963-1.671c-1.83-2.082-3.661-4.286-4.439-6.948s-.234-5.9,2-7.539a11.18,11.18,0,0,0,1.236-.9,11,11,0,0,0,1.141-1.62,7.133,7.133,0,0,1,3.661-2.51,21.124,21.124,0,0,1,4.442-.788,3.737,3.737,0,0,1,1.817.109,2.645,2.645,0,0,1,1.436,2.1,5.618,5.618,0,0,1-1.073,3.977,15.411,15.411,0,0,1-2.955,2.992.613.613,0,0,0-.275.4c0,.241.238.4.448.509a2.6,2.6,0,0,1,1.07.9,1.138,1.138,0,0,1-.058,1.314.527.527,0,0,0-.187.272c-.024.187.2.3.34.435a.717.717,0,0,1-.088.941,2.08,2.08,0,0,1-.91.475" transform="translate(-281.265 -171.951)"/>
        <path id="Path_30403" data-name="Path 30403" d="M352.851,263.2a2.914,2.914,0,0,0-2.466-.73,2.357,2.357,0,0,0-1.7,1.447,2.214,2.214,0,0,0,.5,2.224,5.418,5.418,0,0,0,2.452,1.358l-.275-.275a3.04,3.04,0,0,1-2.683,3.8,3.117,3.117,0,0,1-2.336-1.019,27.185,27.185,0,0,1-1.963-2.235c-2.214-2.717-4.218-6.154-3.056-9.743a5.264,5.264,0,0,1,1.134-1.966c.615-.659,1.481-1.019,2.078-1.674s.992-1.6,1.7-2.269a6.9,6.9,0,0,1,2.241-1.4,13.313,13.313,0,0,1,3.1-.751c.513-.075,1.019-.126,1.549-.18a4.413,4.413,0,0,1,1.569,0,2.068,2.068,0,0,1,1.338,1.817,4.787,4.787,0,0,1-.608,2.883,9.748,9.748,0,0,1-2.075,2.52c-.424.391-.907.73-1.311,1.138a.923.923,0,0,0-.156,1.223c.431.611,2.262.954,1.457,1.99a.679.679,0,0,0-.018.96l.018.018c.187.194.37.309.132.591a1.529,1.529,0,0,1-.74.37c-.482.156-.272.92.211.761a2.069,2.069,0,0,0,1.277-.849,1.043,1.043,0,0,0-.221-1.321c-.034-.024-.071-.085-.109-.1.1.037-.119.143.041.085.071-.027.166-.2.2-.262a1.386,1.386,0,0,0,.194-.75,2.037,2.037,0,0,0-.6-1.4,4,4,0,0,0-.679-.5,1.667,1.667,0,0,1-.268-.163c.061.054-.088.132.048.054a2.168,2.168,0,0,0,.272-.228c.486-.408.964-.822,1.416-1.263a9.2,9.2,0,0,0,2.153-3.056c.835-2.058.506-5.39-2.258-5.61a10.331,10.331,0,0,0-1.939.132c-.679.078-1.375.166-2.058.3a10.9,10.9,0,0,0-3.6,1.274,7.2,7.2,0,0,0-2.438,2.442,4.2,4.2,0,0,1-1.263,1.4,8.15,8.15,0,0,0-1.3,1.019,7.308,7.308,0,0,0-1.841,5.773,12.6,12.6,0,0,0,2.887,6.452c.764,1,1.583,1.966,2.442,2.883a4.377,4.377,0,0,0,2.944,1.586,3.9,3.9,0,0,0,3.99-4.279,2.2,2.2,0,0,0-.129-.713c-.129-.262-.479-.3-.73-.387a3.784,3.784,0,0,1-1.6-.924,1.454,1.454,0,0,1-.357-1.549,1.643,1.643,0,0,1,1.338-.968,2.507,2.507,0,0,1,1.773.533c.275.2.621-.251.363-.472Z" transform="translate(-280.184 -171.033)"/>
        <path id="Path_30404" data-name="Path 30404" d="M318.671,384.149a76.6,76.6,0,0,1-2.017-25.413c.316-3.552.931-7.213,2.938-10.158a15.715,15.715,0,0,1,7.074-5.434,36.216,36.216,0,0,1,8.765-2.129,61.233,61.233,0,0,1,6.792-.615,43.425,43.425,0,0,1,18.648,3.671,9.394,9.394,0,0,1,3.145,1.993,8.653,8.653,0,0,1,1.63,2.849c2.411,6.2,2.292,13.048,2.136,19.7a116.873,116.873,0,0,1-.886,14.005,10.674,10.674,0,0,1-1.7,5.006,9.071,9.071,0,0,1-3.182,2.421,35.7,35.7,0,0,1-10.956,3.022,91.171,91.171,0,0,1-27.23.4c-1.926-.292-4.147-.9-4.863-2.717-.679-1.729.38-3.685.078-5.515" transform="translate(-264.625 -231.583)" fill="#fff"/>
        <path id="Path_30405" data-name="Path 30405" d="M318.088,382.822a77.143,77.143,0,0,1-2.18-18.22,67.626,67.626,0,0,1,.54-8.966,18.275,18.275,0,0,1,2.462-7.614c3.039-4.754,8.789-6.49,14.046-7.353a49.44,49.44,0,0,1,17.867-.024,42.589,42.589,0,0,1,8.382,2.6,9.54,9.54,0,0,1,3.423,2.1,10.01,10.01,0,0,1,1.837,3.675c1.858,5.525,1.844,11.438,1.722,17.2-.064,3.09-.126,6.181-.323,9.264-.1,1.586-.221,3.165-.407,4.754a19.392,19.392,0,0,1-.785,4.038,6.216,6.216,0,0,1-2.258,3.056,16.159,16.159,0,0,1-3.651,1.885,40.2,40.2,0,0,1-8.463,2.038,101.169,101.169,0,0,1-18.57,1.236,66.851,66.851,0,0,1-9.091-.825,8.625,8.625,0,0,1-3.124-1.019,3.032,3.032,0,0,1-1.3-2.921,17.8,17.8,0,0,0,.265-3.821c-.085-.56-.937-.323-.856.238.2,1.382-.34,2.751-.34,4.133a3.81,3.81,0,0,0,1.447,3.026,7.13,7.13,0,0,0,3.155,1.341c1.474.3,2.988.455,4.483.608a90.743,90.743,0,0,0,19.358-.268,82.109,82.109,0,0,0,9.217-1.454,31.191,31.191,0,0,0,4.344-1.311,16.6,16.6,0,0,0,3.827-1.973,7.429,7.429,0,0,0,2.5-3.124,16.42,16.42,0,0,0,.978-4.13,91.692,91.692,0,0,0,.757-9.743c.2-6.113.533-12.348-.574-18.386a29.993,29.993,0,0,0-1.134-4.381,12.025,12.025,0,0,0-1.953-3.858,9.088,9.088,0,0,0-3.464-2.309,44.478,44.478,0,0,0-4.3-1.644,44.964,44.964,0,0,0-18.24-1.912c-5.872.571-12.26,1.5-16.95,5.389a14.2,14.2,0,0,0-4.415,6.721,34.953,34.953,0,0,0-1.3,8.589,76.619,76.619,0,0,0,1.29,19.018c.3,1.521.642,3.033,1.019,4.534a.4.4,0,0,0,.771-.211Z" transform="translate(-263.658 -230.361)"/>
        <path id="Path_30406" data-name="Path 30406" d="M348.306,867.811c2.849.139,5.7.109,8.555.228s5.7.309,8.551.394c5.7.17,11.411.122,17.109.075l4.754-.037a22.515,22.515,0,0,0,5.04-.268,1.12,1.12,0,0,0,0-2.143,19.489,19.489,0,0,0-4.361-.261l-4.32-.034q-4.279-.037-8.555-.034t-8.551.081c-2.853.051-5.705.251-8.555.37-3.216.132-6.452.115-9.655.268a.679.679,0,0,0,0,1.359Z" transform="translate(-285.284 -578.517)"/>
        <path id="Path_30407" data-name="Path 30407" d="M200.176,757.323a15.713,15.713,0,0,1,6.429,3.321,14.91,14.91,0,0,1,4.126,6.076,15.12,15.12,0,0,1,.567,1.953c.153.706.187,1.436.34,2.139.119.486.788.34.829-.112a7.015,7.015,0,0,0-.207-1.932,15.236,15.236,0,0,0-7.882-10.592,14.112,14.112,0,0,0-4.055-1.447c-.377-.068-.547.486-.16.587Z" transform="translate(-187.745 -506.53)"/>
        <path id="Path_30408" data-name="Path 30408" d="M170.155,793.07a2.115,2.115,0,0,1,2.15.071,17.8,17.8,0,0,1,1.847,1.019,22.626,22.626,0,0,1,3.45,2.612,23.188,23.188,0,0,1,5.118,6.877,21.9,21.9,0,0,1,.954,2.275c.129.36.248.727.357,1.1.061.2.119.411.173.615.024.085.044.166.065.248l.031.126q0,.18.112.051l.278.034-.054-.034c-.34-.234-.7.275-.428.554a.455.455,0,0,0,.723-.065,1.088,1.088,0,0,0,.031-.988,22.212,22.212,0,0,0-.774-2.377,23.592,23.592,0,0,0-9.39-11.39,16.194,16.194,0,0,0-2.442-1.3,2.5,2.5,0,0,0-2.513.065c-.3.224,0,.737.3.509Z" transform="translate(-167.786 -529.948)"/>
        <path id="Path_30409" data-name="Path 30409" d="M172.519,796.943a11.31,11.31,0,0,0,2.832-1.545.34.34,0,1,0-.414-.533,10.531,10.531,0,0,1-2.581,1.491.316.316,0,0,0-.214.377.309.309,0,0,0,.377.21Z" transform="translate(-169.38 -531.655)"/>
        <path id="Path_30410" data-name="Path 30410" d="M178.948,804.3q1.932-1.26,3.871-2.506c.4-.251.017-.893-.363-.628q-1.9,1.318-3.807,2.622c-.312.214-.024.72.3.513Z" transform="translate(-173.594 -535.839)"/>
        <path id="Path_30411" data-name="Path 30411" d="M184.783,811.417a12.282,12.282,0,0,0,2.449-1.172,13.5,13.5,0,0,0,1.1-.788c.177-.139.34-.282.516-.431a2,2,0,0,0,.5-.513.34.34,0,0,0-.465-.465,2.4,2.4,0,0,0-.489.421c-.156.139-.319.278-.482.411a11.416,11.416,0,0,1-1.039.757,13.867,13.867,0,0,1-2.252,1.219.3.3,0,0,0-.2.357.3.3,0,0,0,.36.2Z" transform="translate(-177.491 -540.393)"/>
        <path id="Path_30412" data-name="Path 30412" d="M191.992,819.249a14.068,14.068,0,0,0,3.99-3.023c.292-.34-.177-.8-.482-.482a15.917,15.917,0,0,1-3.79,2.992c-.34.187-.037.679.3.513Z" transform="translate(-182.21 -545.437)"/>
        <path id="Path_30413" data-name="Path 30413" d="M201.2,828.839a7.241,7.241,0,0,0,1.423-.846,8.053,8.053,0,0,0,.645-.543,4.039,4.039,0,0,0,.6-.656c.207-.312-.248-.645-.506-.39-.187.18-.34.394-.53.577a6.63,6.63,0,0,1-1.929,1.358.3.3,0,0,0,.3.513Z" transform="translate(-188.282 -552.487)"/>
        <path id="Path_30414" data-name="Path 30414" d="M208.451,838.231l1.178-.954a.309.309,0,0,0,.1-.224.316.316,0,0,0-.537-.221l-1.168.968a.306.306,0,0,0,.217.52A.339.339,0,0,0,208.451,838.231Z" transform="translate(-193.022 -559.379)"/>
        <path id="Path_30415" data-name="Path 30415" d="M405.28,821.47c2.666.21,5.328.411,8,.526q1.98.088,3.963.136c1.338.031,2.717.126,4.048.058a.435.435,0,0,0,0-.869c-1.358-.075-2.717,0-4.048-.02s-2.642-.044-3.963-.082c-2.666-.081-5.339-.17-8-.339C404.9,820.855,404.907,821.439,405.28,821.47Z" transform="translate(-323.162 -548.897)"/>
        <path id="Path_30416" data-name="Path 30416" d="M379.873,563.662c1.983,2.275,2.975,5.166,4.041,7.94,1.168,3.036,2.517,5.994,3.967,8.9a50.314,50.314,0,0,0,2.717,4.866.48.48,0,1,0,.829-.486h0c-.8-1.464-1.647-2.9-2.445-4.371s-1.542-2.958-2.238-4.476-1.328-3.005-1.939-4.53c-.557-1.389-1.1-2.781-1.763-4.123a17.486,17.486,0,0,0-2.734-4.143c-.258-.285-.679.133-.418.418Z" transform="translate(-306.527 -378.694)"/>
        <path id="Path_30417" data-name="Path 30417" d="M337.021,526.136a28.908,28.908,0,0,0,6.259.543.35.35,0,0,0,0-.7,28,28,0,0,1-6.1-.431c-.384-.071-.55.509-.163.588Z" transform="translate(-278.126 -353.859)"/>
        <path id="Path_30418" data-name="Path 30418" d="M399.96,526.082a32.812,32.812,0,0,0,9.91-.6c.465-.105.268-.822-.2-.72a33.683,33.683,0,0,1-9.709.754c-.374-.027-.367.55,0,.584Z" transform="translate(-319.652 -353.336)"/>
        <path id="Path_30419" data-name="Path 30419" d="M592.805,306.278a13.618,13.618,0,0,1,3.111-9.8c.442-.523,1.212-1.043,1.742-.6a1.413,1.413,0,0,1,.357,1.056l.146,3.029c.513-.1.717-.7.839-1.206.238-1.019.52-2,.839-2.985.272-.829.713-1.769,1.569-1.919.914-.16,1.718.774,1.783,1.7a5.048,5.048,0,0,1-.8,2.618,1.432,1.432,0,0,1,2.235.4,2.042,2.042,0,0,1-.659,2.394.824.824,0,0,1,1.3-.143,1.335,1.335,0,0,1,.153,1.45,3.917,3.917,0,0,1-.971,1.2c.445-.56,1.46-.153,1.661.537a2.471,2.471,0,0,1-.554,2c-1.881,2.744-5.05,4.259-8.069,5.654" transform="translate(-447.161 -200.836)" fill="#fff"/>
        <path id="Path_30420" data-name="Path 30420" d="M613.871,323.269c.139.981-.852,1.993-1.464,2.659a10.6,10.6,0,0,1-2.153,1.837c-.795.492-1.62.948-2.455,1.358q-.662.331-1.338.642a5.1,5.1,0,0,0-1.328.659c-.353.319-.1,1.053.411.985a5.564,5.564,0,0,0,1.5-.642c.486-.234.961-.482,1.436-.737a22.357,22.357,0,0,0,2.751-1.776,12.356,12.356,0,0,0,2.286-2.15,3.259,3.259,0,0,0,.937-3.009.306.306,0,0,0-.588.163Z" transform="translate(-455.223 -220.03)"/>
        <path id="Path_30421" data-name="Path 30421" d="M592.376,305.182a14.581,14.581,0,0,1,1.7-7.322,13.68,13.68,0,0,1,1-1.583c.292-.394.74-1.094,1.277-1.168s.4,1.049.411,1.392l.1,2.357a.557.557,0,0,0,.563.551.55.55,0,0,0,.133-.018,1.6,1.6,0,0,0,1.073-1.073c.251-.645.367-1.358.557-2.017a15.688,15.688,0,0,1,.638-1.956,1.781,1.781,0,0,1,.985-1.039c.557-.224.554-1.168-.153-1.138-1.28.061-1.844,1.453-2.177,2.5q-.34,1.09-.622,2.2c-.085.34-.16,1.341-.594,1.457l.7.533-.122-2.187a4.863,4.863,0,0,0-.255-1.783c-.543-1.175-1.865-.767-2.595-.037a11.06,11.06,0,0,0-1.953,2.887,13.209,13.209,0,0,0-1.165,3.4,12.6,12.6,0,0,0-.122,4.055c.048.377.621.4.608,0Z" transform="translate(-446.426 -199.74)"/>
        <path id="Path_30422" data-name="Path 30422" d="M439.7,336.073A117.124,117.124,0,0,1,460.644,346c1.7,1.019,3.593,2.123,5.522,1.7,1.569-.34,2.737-1.623,3.793-2.836l10.141-11.6c1.725-1.976,4.055-4.153,6.588-3.467-.119-1.358,1.481-2.313,2.808-2.092a6.728,6.728,0,0,1,3.345,2.146l1.5,1.464a4.278,4.278,0,0,1,1.664,2.826c0,1.127-1.525,2.116-2.275,1.28,1.236,1.956.316,4.507-.679,6.6-3.464,7.308-7.668,14.443-13.74,19.782s-14.263,8.7-22.271,7.471a32.339,32.339,0,0,1-7.777-2.4A61.934,61.934,0,0,1,435,358.31" transform="translate(-342.976 -223.183)" fill="#fff"/>
        <path id="Path_30423" data-name="Path 30423" d="M438.575,335.4a126.116,126.116,0,0,1,20.753,10.086c1.511.917,3.172,1.912,5,1.881a6.15,6.15,0,0,0,4.262-2.286c1.358-1.43,2.6-2.958,3.9-4.439q2.038-2.33,4.075-4.653c1.406-1.606,2.747-3.321,4.286-4.8,1.24-1.189,2.863-2.353,4.67-1.9a.51.51,0,0,0,.638-.486c-.061-1.1,1.2-1.722,2.167-1.6,1.335.17,2.377,1.3,3.291,2.19.533.523,1.08,1.039,1.6,1.572a4.438,4.438,0,0,1,1.121,1.572,1.192,1.192,0,0,1-.282,1.358c-.272.241-.679.441-.988.143a.533.533,0,0,0-.832.642c1.3,2.156-.088,4.836-1.06,6.836-1.114,2.3-2.3,4.571-3.607,6.775a49.757,49.757,0,0,1-9.475,11.9,30.832,30.832,0,0,1-12.99,7.03,23.428,23.428,0,0,1-7.291.662,26.769,26.769,0,0,1-7.811-1.922,60.25,60.25,0,0,1-14.032-7.852c-.53-.394-1.049-.8-1.566-1.209s-1.358.34-.8.8a62.615,62.615,0,0,0,14.274,8.636,32.664,32.664,0,0,0,8.181,2.52,24.012,24.012,0,0,0,7.638-.149,31.113,31.113,0,0,0,13.9-6.585,47.155,47.155,0,0,0,10.188-12c1.392-2.265,2.652-4.605,3.827-6.989,1.083-2.2,2.513-4.7,2.156-7.24a4.414,4.414,0,0,0-.615-1.718l-.835.642a1.858,1.858,0,0,0,2.8-.52c.8-1.141.17-2.516-.621-3.467a21.1,21.1,0,0,0-1.572-1.593c-.543-.53-1.073-1.073-1.647-1.566a4.767,4.767,0,0,0-3.654-1.45,2.686,2.686,0,0,0-2.472,2.595l.638-.489c-3.45-.863-6.137,2.418-8.13,4.7q-4.075,4.663-8.127,9.315c-1.107,1.267-2.2,2.812-3.753,3.566-1.678.815-3.491,0-4.985-.832-1.661-.934-3.284-1.926-4.958-2.836s-3.4-1.786-5.142-2.612a109.616,109.616,0,0,0-11.951-4.836c-.38-.129-.53.458-.163.6Z" transform="translate(-341.935 -222.212)"/>
        <path id="Path_30424" data-name="Path 30424" d="M618.822,304.51a13.166,13.166,0,0,1,.944-1.752,8.352,8.352,0,0,0,.486-.751,3.864,3.864,0,0,0,.2-.472.794.794,0,0,0,0-.611c-.109-.248-.428-.214-.6-.078a.961.961,0,0,0-.221.4,3.48,3.48,0,0,1-.211.4c-.153.255-.306.513-.452.771a8.819,8.819,0,0,0-.706,1.858c-.092.319.4.543.55.231Z" transform="translate(-463.997 -205.401)"/>
        <path id="Path_30425" data-name="Path 30425" d="M623.523,311.653a4.211,4.211,0,0,0,1.019-.931,4.674,4.674,0,0,0,.737-1.267.38.38,0,0,0-.265-.465.39.39,0,0,0-.462.265h0s-.024.051-.034.075l-.061.136c-.044.1-.092.187-.139.278a4.355,4.355,0,0,1-.34.543l-.037.051c-.024.031.027-.031,0,.017l-.105.129-.211.234a5.113,5.113,0,0,1-.458.445.3.3,0,0,0-.024.4.3.3,0,0,0,.394.078Z" transform="translate(-467.181 -210.842)"/>
        <path id="Path_30426" data-name="Path 30426" d="M625.718,318.439a1.534,1.534,0,0,0,.268-.221l.207-.224.411-.458c.146-.166.278-.34.414-.516s.261-.34.377-.513a.391.391,0,0,0-.615-.472c-.272.34-.526.679-.771,1.019l-.34.486-.173.231a1.746,1.746,0,0,0-.163.275.3.3,0,0,0,.044.34.289.289,0,0,0,.34.044Z" transform="translate(-468.649 -215.424)"/>
        <path id="Path_30427" data-name="Path 30427" d="M364.423,360.88c-1.64,10.939-.187,21.928,1.019,32.83.17,1.545.34,3.087.479,4.632a7.1,7.1,0,0,1-.316,4.048.393.393,0,1,0,.679.394,5.722,5.722,0,0,0,.554-3.372c-.1-1.358-.262-2.7-.408-4.045-.3-2.764-.621-5.522-.924-8.286a153.182,153.182,0,0,1-1.1-16.641,69.057,69.057,0,0,1,.6-9.4c.051-.37-.516-.533-.57-.156Z" transform="translate(-295.882 -244.977)"/>
        <g id="Group_34821" data-name="Group 34821" transform="translate(129.112 308.675)">
          <path id="Path_30428" data-name="Path 30428" d="M544.565,931.8a9.877,9.877,0,0,1,3.124-.255.34.34,0,1,0,.151-.662.345.345,0,0,0-.151,0,7.806,7.806,0,0,0-3.284.34.3.3,0,0,0,.16.581Z" transform="translate(-544.208 -930.184)" fill="#fff"/>
          <path id="Path_30429" data-name="Path 30429" d="M544.852,938.975a4.958,4.958,0,0,1,3.1-.445.34.34,0,0,0,.418-.237h0a.339.339,0,0,0-.233-.42h0a4.917,4.917,0,0,0-3.579.591.3.3,0,1,0,.3.513Z" transform="translate(-544.339 -934.759)" fill="#fff"/>
          <path id="Path_30430" data-name="Path 30430" d="M546.094,946.33a8.1,8.1,0,0,1,2.595-.571.34.34,0,1,0,0-.679,8.9,8.9,0,0,0-2.826.7c-.309.132-.085.679.231.55Z" transform="translate(-545.203 -939.594)" fill="#fff"/>
          <path id="Path_30431" data-name="Path 30431" d="M679.36,930.938c.2-.143.367-.34.564-.479a4.549,4.549,0,0,1,.56-.367,4.755,4.755,0,0,1,1.277-.482.339.339,0,0,0,.249-.411l0-.017a.356.356,0,0,0-.431-.245,4.652,4.652,0,0,0-1.433.564,4.948,4.948,0,0,0-.642.452,2.374,2.374,0,0,0-.557.567c-.153.248.166.6.418.418Z" transform="translate(-633.16 -928.926)" fill="#fff"/>
          <path id="Path_30432" data-name="Path 30432" d="M682.558,938.453a3.3,3.3,0,0,1,1.019-.764,3.1,3.1,0,0,1,.547-.217,2.91,2.91,0,0,1,.34-.085l.149-.027h.132a.356.356,0,0,0,.34-.34.34.34,0,0,0-.34-.339,3.888,3.888,0,0,0-2.6,1.379.319.319,0,0,0,0,.431.309.309,0,0,0,.431,0Z" transform="translate(-635.247 -934.047)" fill="#fff"/>
          <path id="Path_30433" data-name="Path 30433" d="M686.6,946.924a6.11,6.11,0,0,1,2.5-.584.35.35,0,1,0,0-.7,5.863,5.863,0,0,0-2.832.713.33.33,0,0,0,.333.571Z" transform="translate(-637.918 -939.964)" fill="#fff"/>
        </g>
        <g id="Group_34822" data-name="Group 34822" transform="translate(134.15 153.594)">
          <path id="Path_30434" data-name="Path 30434" d="M685.34,617.818a3.339,3.339,0,0,0,.6,1.848,15.176,15.176,0,0,0,2.343,2.982,7.772,7.772,0,0,0,1.5,1.25.391.391,0,0,0,.472-.611c-.421-.4-.907-.74-1.338-1.138a14.681,14.681,0,0,1-1.212-1.263,13.767,13.767,0,0,1-1.019-1.358,3.9,3.9,0,0,1-.737-1.7.306.306,0,0,0-.608,0Z" transform="translate(-642.449 -568.218)" fill="#fff"/>
          <path id="Path_30435" data-name="Path 30435" d="M610.838,622.37a10,10,0,0,0,2.51-1.447,8.469,8.469,0,0,0,1.019-.975,6.381,6.381,0,0,0,.893-1.175c.19-.34-.3-.764-.56-.435s-.536.723-.835,1.06a10.267,10.267,0,0,1-.992.964,9.107,9.107,0,0,1-2.289,1.433c-.319.143-.088.706.245.574Z" transform="translate(-592.979 -568.657)" fill="#fff"/>
          <path id="Path_30436" data-name="Path 30436" d="M559.439,760.779a11.462,11.462,0,0,1,4.238-.435c.442.037.442-.659,0-.679a12.079,12.079,0,0,0-4.415.516c-.384.122-.224.723.166.608Z" transform="translate(-559.043 -662.047)" fill="#fff"/>
          <path id="Path_30437" data-name="Path 30437" d="M561.35,768.891l3.359-.506a.322.322,0,1,0-.17-.621l-3.352.53a.313.313,0,0,0-.217.38.319.319,0,0,0,.38.217Z" transform="translate(-560.309 -667.409)" fill="#fff"/>
          <path id="Path_30438" data-name="Path 30438" d="M622.068,760.442l3.206-.428a.342.342,0,0,0-.088-.679l-3.2.472c-.34.051-.265.679.085.618Z" transform="translate(-600.463 -661.846)" fill="#fff"/>
          <path id="Path_30439" data-name="Path 30439" d="M624.78,768.347h2.4a.36.36,0,0,0,0-.716h-2.4a.363.363,0,0,0-.36.34.37.37,0,0,0,.36.36Z" transform="translate(-602.218 -667.326)" fill="#fff"/>
          <path id="Path_30440" data-name="Path 30440" d="M631.561,476.665a20,20,0,0,0,3.987.567,10.756,10.756,0,0,0,3.824-.791c2.038-.75,4.17-1.62,5.481-3.457.367-.513-.482-1-.846-.492-1.172,1.644-3.209,2.415-5.04,3.08a11.544,11.544,0,0,1-3.4.764,19.08,19.08,0,0,1-3.8-.34c-.428-.068-.625.571-.183.662Z" transform="translate(-606.785 -472.276)" fill="#fff"/>
        </g>
        <path id="Path_30441" data-name="Path 30441" d="M610.1,253.4c2.822-.363,4.948-2.968,5.6-5.736s.122-5.668-.53-8.436a3.251,3.251,0,0,0-1.185-2.163,2.766,2.766,0,0,0-1.192-.312,8.372,8.372,0,0,0-4.259.781c-.448.214-.927.543-.971,1.039a1.084,1.084,0,0,0,.91,1.036,3.135,3.135,0,0,0,1.484-.163,3.926,3.926,0,0,0-3.253,1.45c-.34.4-.53,1.073-.115,1.389a1.061,1.061,0,0,0,.571.16,5.56,5.56,0,0,0,1.949-.238,5.307,5.307,0,0,0-2.921,1.555c-.421.445-.774,1.124-.448,1.644a1.326,1.326,0,0,0,1.45.377,5.84,5.84,0,0,1,1.552-.357,5.29,5.29,0,0,0-3.152,2.686.761.761,0,0,0-.054.441c.129.475.815.37,1.3.421,1.09.115,1.583,1.4,1.817,2.472s.391,1.752,1.467,1.96" transform="translate(-455.59 -163.123)" fill="#fff"/>
        <path id="Path_30442" data-name="Path 30442" d="M609.086,252.785a6.437,6.437,0,0,0,4.69-2.893,10.345,10.345,0,0,0,1.667-6.154,22.051,22.051,0,0,0-.458-3.8,12.386,12.386,0,0,0-.849-3.131,2.732,2.732,0,0,0-2.506-1.437,8.637,8.637,0,0,0-3.535.516c-.883.34-2.272.934-1.98,2.129.34,1.358,1.905,1.263,2.955.978a.472.472,0,0,0-.126-.924,4.211,4.211,0,0,0-3.919,2.072,1.232,1.232,0,0,0,.506,1.749,4.462,4.462,0,0,0,2.669-.139.479.479,0,0,0-.255-.92,5.809,5.809,0,0,0-2.323.985,3.407,3.407,0,0,0-1.484,1.875,1.376,1.376,0,0,0,1.018,1.657h0c.91.231,1.664-.34,2.547-.34l-.245-.9a6.486,6.486,0,0,0-3,2.194,1.754,1.754,0,0,0-.36,1.7c.3.554.88.543,1.389.567,1.151.054,1.45,1.29,1.664,2.238.241,1.07.628,1.943,1.8,2.2.635.139.907-.839.268-.978a1.018,1.018,0,0,1-.849-.618,7.331,7.331,0,0,1-.3-1.229,3.682,3.682,0,0,0-1.413-2.357,2.528,2.528,0,0,0-1.26-.289.834.834,0,0,1-.34-.031c-.122-.068-.054.037-.041-.1a1.894,1.894,0,0,1,.374-.713,5.941,5.941,0,0,1,2.564-1.759c.458-.2.2-.907-.245-.9a15.993,15.993,0,0,0-1.9.414c-.594.054-.91-.289-.618-.842a4.358,4.358,0,0,1,3.009-1.847l-.255-.92a4.934,4.934,0,0,1-1.82.224c-.234-.02-.367-.071-.309-.34a1.358,1.358,0,0,1,.357-.6,3.5,3.5,0,0,1,2.771-1.111l-.126-.924a2.356,2.356,0,0,1-1.359.132c-.442-.153-.6-.482-.3-.808a2.777,2.777,0,0,1,1.019-.574,8.219,8.219,0,0,1,1.45-.418,5.711,5.711,0,0,1,2.822.02c.788.282,1.019,1.155,1.209,1.888.873,3.539,1.555,7.655-.543,10.908a6.555,6.555,0,0,1-4.1,2.992.3.3,0,0,0,.078.581Z" transform="translate(-454.574 -162.217)" fill="#fff"/>
        <path id="Path_30443" data-name="Path 30443" d="M604.691,271.512a2.855,2.855,0,0,0,.611.8,3.011,3.011,0,0,0,.859.55,3.586,3.586,0,0,0,.516.18l.126.031h.041c.048.017.054.017.024,0a.888.888,0,0,1-.075-.085c-.027-.034,0,.061,0-.02.024.194.031.394.051.591a6,6,0,0,0,.129.73.438.438,0,0,0,.863-.116,5.05,5.05,0,0,0-.082-1.358.814.814,0,0,0-.424-.567,1.078,1.078,0,0,0-.319-.092h-.129l-.126-.024a2.884,2.884,0,0,1-1.6-.964c-.224-.262-.608.071-.458.34Z" transform="translate(-455.019 -185.807)"/>
        <path id="Path_30444" data-name="Path 30444" d="M606.621,262.584c.489-.173.985-.34,1.491-.469a3.735,3.735,0,0,1,.679-.109,6,6,0,0,1,.781.017.4.4,0,0,0,.105-.774,3.141,3.141,0,0,0-1.732.112,8.949,8.949,0,0,0-1.572.679.3.3,0,0,0,.231.54Z" transform="translate(-456.062 -179.273)"/>
        <path id="Path_30445" data-name="Path 30445" d="M607.959,253.9c.163-.34.635-.4.988-.445a10.938,10.938,0,0,1,1.6-.037.343.343,0,1,0,.092-.679,4.547,4.547,0,0,0-1.983.071,1.6,1.6,0,0,0-1.243.859C607.287,253.987,607.813,254.208,607.959,253.9Z" transform="translate(-456.823 -173.651)"/>
        <path id="Path_30446" data-name="Path 30446" d="M608.982,245.734a8.263,8.263,0,0,1,3.029-.088.394.394,0,0,0,.469-.268.38.38,0,0,0-.268-.465,8.061,8.061,0,0,0-3.4.241.3.3,0,0,0,.16.581Z" transform="translate(-457.632 -168.479)"/>
        <path id="Path_30447" data-name="Path 30447" d="M626.573,234.911c2.078,1.27,2.486,3.855,2.567,6.082.051,1.324.058,2.652.054,3.977,0,.611,0,1.226-.037,1.834a7.115,7.115,0,0,1-.105.931c-.061.323-.19.635-.245.958a.486.486,0,0,0,.883.374,4.489,4.489,0,0,0,.482-2.038c.051-.662.051-1.379.051-2.065,0-1.457-.017-2.921-.112-4.374-.16-2.377-.849-5.131-3.24-6.2a.3.3,0,0,0-.3.513Z" transform="translate(-469.392 -161.558)"/>
        <path id="Path_30448" data-name="Path 30448" d="M494.472,278.438a5.605,5.605,0,0,1,1.447-1.019,7.139,7.139,0,0,1,1.7-.469c.418-.081.316-.73-.1-.73a4.415,4.415,0,0,0-1.932.56,4.719,4.719,0,0,0-1.521,1.226.3.3,0,0,0,.418.418Z" transform="translate(-381.932 -189.208)"/>
        <path id="Path_30449" data-name="Path 30449" d="M506.934,278.912a4.042,4.042,0,0,1,4.367.679,7.914,7.914,0,0,1,1.474,2.211,22.271,22.271,0,0,1,1.175,2.788c.207.6,1.172.34.961-.265a21.05,21.05,0,0,0-1.358-3.135,6.914,6.914,0,0,0-1.871-2.442,4.779,4.779,0,0,0-5.033-.36c-.34.183-.041.659.3.5Z" transform="translate(-390.193 -190.277)"/>
        <g id="Group_34823" data-name="Group 34823" transform="translate(159.51 120.404)">
          <path id="Path_30450" data-name="Path 30450" d="M656.3,398.951c1.358,3.1,2.747,6.167,4.075,9.278q.988,2.34,1.936,4.693c.625,1.559,1.2,3.145,1.892,4.673.177.394.825.115.679-.292-.516-1.617-1.192-3.189-1.837-4.754s-1.29-3.1-1.96-4.646c-1.358-3.114-2.737-6.225-4.293-9.244-.177-.34-.649-.041-.5.3Z" transform="translate(-648.604 -390.371)" fill="#fff"/>
          <path id="Path_30451" data-name="Path 30451" d="M679.81,461.229a.34.34,0,1,0-.34-.34A.34.34,0,0,0,679.81,461.229Z" transform="translate(-663.932 -431.343)" fill="#fff"/>
          <path id="Path_30452" data-name="Path 30452" d="M695.89,374.969a82.815,82.815,0,0,1,8.908,18,9.833,9.833,0,0,1,.4,1.341,9.534,9.534,0,0,0,.431,1.263c.319.907.584,1.837.846,2.761a.377.377,0,0,0,.727-.2c-.224-.832-.472-1.654-.71-2.482-.115-.391-.217-.781-.34-1.168s-.34-.795-.475-1.209q-.832-2.4-1.817-4.754a80.258,80.258,0,0,0-4.415-8.935q-1.44-2.5-3.056-4.9c-.211-.312-.72-.02-.509.3Z" transform="translate(-674.738 -374.547)" fill="#fff"/>
          <path id="Path_30453" data-name="Path 30453" d="M633.719,484.593a13.229,13.229,0,0,0,.309,1.885c.126.618.272,1.233.431,1.844a31.4,31.4,0,0,0,1.216,3.658.418.418,0,0,0,.747.1q2.354-3.756,4.7-7.519c.292-.472-.452-.907-.744-.435q-2.34,3.766-4.663,7.543l.747.1a36.495,36.495,0,0,1-1.27-3.569c-.173-.584-.34-1.172-.472-1.763s-.238-1.291-.414-1.915c-.088-.319-.608-.268-.588.078Z" transform="translate(-633.718 -446.777)" fill="#fff"/>
        </g>
        <g id="Group_34824" data-name="Group 34824" transform="translate(25.348 164.493)">
          <path id="Path_30454" data-name="Path 30454" d="M287.924,580.036a43.992,43.992,0,0,1-3.474,15.282,82.27,82.27,0,0,1-7.74,14.053c-1.471,2.221-3,4.415-4.551,6.568-1.7,2.377-3.4,4.721-5.3,6.925a72.051,72.051,0,0,1-6.093,6.13q-3.25,2.958-6.571,5.834-6.7,5.811-13.666,11.329l-1.735,1.358c-.38.3.156.829.533.533q7.05-5.522,13.846-11.356,3.4-2.934,6.762-5.936c2.167-1.943,4.323-3.909,6.3-6.045a72.722,72.722,0,0,0,5.4-6.717c1.62-2.221,3.219-4.462,4.754-6.738a91.44,91.44,0,0,0,8.062-14.033A43.42,43.42,0,0,0,288.43,582c.037-.656.054-1.314.054-1.97a.289.289,0,0,0-.574,0Z" transform="translate(-238.666 -554.165)" fill="#fff"/>
          <path id="Path_30455" data-name="Path 30455" d="M441.372,504.6a13.246,13.246,0,0,1-3.155,6.371.367.367,0,0,0,.163.608c.948.248,1.1,1.824,1.307,2.6q.5,1.827.981,3.661.982,3.715,1.929,7.441,1.891,7.447,3.62,14.943c.543,2.35,1.518,5.2.268,7.471l.679.394-.143.027c-.166,0-.19.031-.061.129,0,.065.037.177.044.245a6.559,6.559,0,0,1-.027.73c-.02.557-.048,1.114-.078,1.671q-.1,1.569-.255,3.128-.316,3.124-.893,6.208c-.768,4.116-1.817,8.185-2.785,12.256l-5.834,24.6c-1.1,4.615-2.235,9.227-3.274,13.856-.1.458.594.655.71.193,2.173-8.687,4.157-17.432,6.225-26.15l3.1-13.024c1.019-4.34,2.156-8.674,2.887-13.078.394-2.377.679-4.755.846-7.162.044-.625.081-1.253.109-1.878a6.64,6.64,0,0,0,.031-1.681c-.119-.513-.914-1.192-1.27-.472-.217.445.431.839.679.394,1.1-2,.679-4.316.183-6.452q-.92-4.055-1.9-8.1-1.939-8.032-4.075-16.023-.581-2.184-1.178-4.371c-.251-.917-.584-2.038-1.627-2.286l.16.611a13.584,13.584,0,0,0,3.2-6.731c.061-.367-.489-.526-.56-.156Z" transform="translate(-367.565 -504.37)" fill="#fff"/>
        </g>
      </g>
      <path id="Path_30457" data-name="Path 30457" d="M11083.648-2686.61a.425.425,0,0,1-.187-.044.419.419,0,0,1-.188-.562,28.95,28.95,0,0,1,3.477-5.05c2.38-2.869,6.138-6.571,6.176-6.608a.419.419,0,0,1,.593,0,.419.419,0,0,1,0,.593c-.037.037-3.766,3.709-6.117,6.545a28.709,28.709,0,0,0-3.372,4.887A.419.419,0,0,1,11083.648-2686.61Z" transform="translate(-10835.124 3048.956)"/>
      <path id="Path_30458" data-name="Path 30458" d="M.42,12.549A.42.42,0,0,1,.066,11.9a30.243,30.243,0,0,1,4.6-5.12c3.146-2.908,8.117-6.66,8.167-6.7a.419.419,0,1,1,.5.67c-.05.037-4.987,3.764-8.1,6.644a29.952,29.952,0,0,0-4.465,4.96A.421.421,0,0,1,.42,12.549Z" transform="translate(430.276 399.556) rotate(120)"/>
      <g id="Group_34827" data-name="Group 34827" transform="translate(389.243 267.917)">
        <path id="Path_30457-2" data-name="Path 30457" d="M11210.765-2768.056a1.045,1.045,0,0,1-.848-.359,2.054,2.054,0,0,1-.468-1.264,2.307,2.307,0,0,1,.22-1.163l.556-1.284a.394.394,0,0,1,.515-.2.392.392,0,0,1,.2.515l-.561,1.294a.139.139,0,0,1-.012.024,1.537,1.537,0,0,0-.142.74,1.279,1.279,0,0,0,.3.853c.065.081.315.075.467.036a.391.391,0,0,1,.477.278.39.39,0,0,1-.273.478A1.746,1.746,0,0,1,11210.765-2768.056Z" transform="translate(-11209.44 2772.361)"/>
      </g>
    </g>
  </g>
</svg>
